<?xml version="1.0" encoding="UTF-8" standalone="no"?>
<!-- Created with Inkscape (http://www.inkscape.org/) -->

<svg
   width="256.91388"
   height="279.49982"
   viewBox="0 0 67.975129 73.950993"
   version="1.1"
   id="svg1"
   xml:space="preserve"
   xmlns="http://www.w3.org/2000/svg"
   xmlns:svg="http://www.w3.org/2000/svg"><defs
     id="defs1" /><g
     id="layer1"
     transform="translate(-105.37094,202.66988)"><g
       id="g38828"><path
         style="fill:#3c6778;fill-opacity:1;stroke:#3c6778;stroke-width:3.05091;stroke-linecap:round;stroke-dasharray:none;stroke-opacity:1;paint-order:stroke fill markers"
         d="m 109.59218,-164.08984 c 0,0 2.97705,25.5539 2.99542,26.149 0.34816,11.27999 53.48913,8.60678 53.48488,1.88537 l 3.62365,-28.69754 z"
         id="path38826" /><path
         style="fill:#4f9cac;fill-opacity:1;stroke:none;stroke-width:3.05091;stroke-linecap:round;stroke-dasharray:none;stroke-opacity:1;paint-order:stroke fill markers"
         d="m 161.18335,-156.05314 -2.49324,23.92704 c 2.95166,-0.79821 6.19779,-1.28952 7.38237,-3.92937 l 2.96465,-27.58484 z"
         id="path38828" /><path
         style="fill:#4f9cac;fill-opacity:1;stroke:none;stroke-width:3.05091;stroke-linecap:round;stroke-dasharray:none;stroke-opacity:1;paint-order:stroke fill markers"
         d="m 118.2471,-156.33498 1.55931,24.05192 c 6.52679,2.14438 15.2889,1.77818 23.57904,1.94207 l 0.0814,-21.67802 z"
         id="path38827" /><path
         style="fill:#fdfadb;fill-opacity:1;stroke:#bfa185;stroke-width:2.52174;stroke-linecap:round;stroke-linejoin:round;stroke-dasharray:none;stroke-opacity:1;paint-order:normal"
         d="m 156.74487,-190.53265 c 0.4697,-5.73094 12.69672,-12.09014 11.11374,4.56457 11.12944,15.13331 -1.39208,31.59463 -16.6897,33.36531 -19.25312,2.22852 -41.5316,-0.80466 -44.33664,-18.97698 -1.15768,-7.49996 2.84591,-14.34986 8.53377,-20.54058 -1.95705,-7.13484 9.71001,-13.05549 12.70141,-6.35071 10.87962,-1.62631 20.93502,-0.57398 30.22938,4.53709"
         id="path38822" /><path
         style="fill:#fee1e5;fill-opacity:1;stroke:#bfa185;stroke-width:1.80737;stroke-linecap:round;stroke-dasharray:none;stroke-opacity:1;paint-order:markers fill stroke"
         d="m 116.11877,-184.74826 c 9.93404,-11.33277 33.78734,-4.74451 38.54228,3.64245 7.82973,13.81039 -5.90214,25.75382 -25.40284,22.62439 -14.91382,-2.39334 -22.75956,-15.29219 -13.13944,-26.26684 z"
         id="path38823" /><path
         style="fill:none;fill-opacity:1;stroke:#552704;stroke-width:6.14654;stroke-linecap:round;stroke-dasharray:none;stroke-opacity:1;paint-order:stroke fill markers"
         d="m 126.87171,-174.67332 c 1.68263,1.95643 5.20038,2.95966 9.01633,0.7458"
         id="path38824" /><circle
         style="fill:#552704;fill-opacity:1;stroke:none;stroke-width:10.8134;stroke-linecap:round;stroke-dasharray:none;stroke-opacity:1;paint-order:stroke fill markers"
         id="path38825"
         cx="145.64352"
         cy="-177.59557"
         r="3.5350626" /><ellipse
         style="fill:#552704;fill-opacity:1;stroke:none;stroke-width:10.1491;stroke-linecap:round;stroke-dasharray:none;stroke-opacity:1;paint-order:stroke fill markers"
         id="circle38825"
         cx="118.73483"
         cy="-179.53873"
         rx="3.5350626"
         ry="3.1140661" /></g></g></svg>
