<?xml version="1.0" encoding="UTF-8" standalone="no"?>
<!-- Created with Inkscape (http://www.inkscape.org/) -->

<svg
   width="213.44141"
   height="223.98325"
   viewBox="0 0 56.473038 59.262234"
   version="1.1"
   id="svg1"
   inkscape:version="1.3.2 (091e20e, 2023-11-25, custom)"
   xml:space="preserve"
   xmlns:inkscape="http://www.inkscape.org/namespaces/inkscape"
   xmlns:sodipodi="http://sodipodi.sourceforge.net/DTD/sodipodi-0.dtd"
   xmlns="http://www.w3.org/2000/svg"
   xmlns:svg="http://www.w3.org/2000/svg"><sodipodi:namedview
     id="namedview1"
     pagecolor="#4c4c4c"
     bordercolor="#6f6f6f"
     borderopacity="1"
     inkscape:showpageshadow="false"
     inkscape:pageopacity="0.0"
     inkscape:pagecheckerboard="0"
     inkscape:deskcolor="#4c4c4c"
     inkscape:document-units="px" /><defs
     id="defs1" /><g
     inkscape:label="Capa 1"
     inkscape:groupmode="layer"
     id="layer1"
     transform="translate(-194.91988,-96.679702)"><path
       style="fill:#efeff1;fill-opacity:1"
       d="m 209.07509,150.32201 v -5.62009 l -2.4474,-0.0419 c -1.34607,-0.0231 -2.67681,-0.0207 -2.95721,0.005 -1.05204,0.0972 -3.22269,-0.75349 -4.09963,-1.60664 -1.67416,-1.62872 -1.85933,-2.40615 -1.87723,-7.88161 l -0.016,-4.89479 -0.83674,-0.52917 c -1.66057,-1.05018 -1.921,-1.91105 -1.921,-6.35 0,-4.44419 0.23669,-5.21631 1.91823,-6.25756 l 0.85989,-0.53247 v -4.64408 c 0,-5.12316 0.19099,-6.15902 1.40777,-7.63518 1.57504,-1.91079 1.83219,-1.95274 12.01089,-1.95928 l 9.05302,-0.006 0.0751,-2.844272 0.0751,-2.84427 h 2.77812 2.77813 l 0.0751,2.84427 0.0751,2.844272 9.05303,0.006 c 10.15297,0.007 10.35762,0.0394 12.01743,1.9298 1.20884,1.3768 1.39809,2.3984 1.39975,7.55604 l 10e-4,4.59685 1.17339,1.03285 c 1.49054,1.31203 1.84723,2.78925 1.68663,6.9851 -0.1261,3.29438 -0.52387,4.34257 -2.0029,5.27793 l -0.83673,0.52917 -0.016,4.89479 c -0.0179,5.47329 -0.20337,6.25321 -1.87358,7.87805 -1.62081,1.57679 -2.25606,1.64695 -14.91146,1.64695 h -11.39295 l -5.62465,5.62009 -5.62465,5.62008 z m 16.66131,-17.41635 c 2.38765,-0.70906 4.37374,-2.29804 5.43324,-4.3469 l 0.40862,-0.79018 -4.43857,-0.0235 c -5.41832,-0.0287 -7.19967,-0.0285 -10.21018,7.8e-4 l -2.33203,0.0227 0.61224,1.09209 c 1.96325,3.50196 6.49344,5.24273 10.52668,4.04499 z M 215.4521,121.3422 c 0.49447,-0.33306 1.17945,-1.11352 1.5222,-1.73436 0.91659,-1.6603 0.63404,-3.21938 -0.85294,-4.70636 -1.48698,-1.48698 -3.04606,-1.76953 -4.70637,-0.85294 -1.57421,0.86906 -2.3399,2.09289 -2.3399,3.73992 0,2.45732 1.67853,4.14675 4.12806,4.15483 0.97378,0.003 1.60044,-0.16427 2.24895,-0.60109 z m 19.70602,0.0631 c 1.25367,-0.77481 1.9628,-2.0526 1.9628,-3.53676 0,-3.97988 -4.56398,-5.767 -7.21998,-2.82712 -1.44576,1.60029 -1.58349,3.44917 -0.38338,5.14663 1.24406,1.75961 3.85227,2.32247 5.64056,1.21725 z"
       id="path1" /></g></svg>
