<?xml version="1.0" encoding="UTF-8" standalone="no"?>
<!-- Created with Inkscape (http://www.inkscape.org/) -->

<svg
   width="213.74689"
   height="192.1067"
   viewBox="0 0 56.553863 50.828232"
   version="1.1"
   id="svg1"
   inkscape:version="1.3.2 (091e20e, 2023-11-25, custom)"
   xml:space="preserve"
   xmlns:inkscape="http://www.inkscape.org/namespaces/inkscape"
   xmlns:sodipodi="http://sodipodi.sourceforge.net/DTD/sodipodi-0.dtd"
   xmlns="http://www.w3.org/2000/svg"
   xmlns:svg="http://www.w3.org/2000/svg"><sodipodi:namedview
     id="namedview1"
     pagecolor="#4c4c4c"
     bordercolor="#6f6f6f"
     borderopacity="1"
     inkscape:showpageshadow="false"
     inkscape:pageopacity="0.0"
     inkscape:pagecheckerboard="0"
     inkscape:deskcolor="#4c4c4c"
     inkscape:document-units="px" /><defs
     id="defs1" /><g
     inkscape:label="Capa 1"
     inkscape:groupmode="layer"
     id="layer1"
     transform="translate(-244.36481,9.537445)"><path
       style="fill:#efeff1;fill-opacity:1"
       d="m 245.71106,40.774675 c -0.58112,-0.35433 -0.93325,-0.83848 -1.12336,-1.5445 -0.17653,-0.65556 -0.25334,-4.85657 -0.21189,-11.58759 0.0716,-11.621039 0.0521,-11.472989 1.79677,-13.652539 0.42999,-0.53717 0.77878,-1.19201 0.77508,-1.45521 -0.004,-0.26319 -0.58726,-2.7782902 -1.2968,-5.5891102 -1.44494,-5.7240706 -1.44456,-5.7699806 0.0715,-8.6347606 1.89544,-3.58165 5.92727,-6.54502 10.09557,-7.42016 2.71965,-0.571 30.88243,-0.571 33.60209,0 4.39957,0.9237 8.38173,3.96248 10.309,7.86677 0.52172,1.05691 0.97117,2.27883 0.99878,2.7154 0.0276,0.43656 -0.47122,2.8803802 -1.10853,5.4307206 l -1.15873,4.6369702 0.96468,1.97761 c 0.56743,1.16325 1.07872,2.71854 1.24163,3.7769 0.35277,2.29178 0.32773,20.595469 -0.03,21.959129 -0.18011,0.68651 -0.5313,1.16755 -1.10993,1.52037 -0.82418,0.50253 -1.53188,0.51611 -26.9079,0.51611 -25.37604,0 -26.08373,-0.0136 -26.90792,-0.51611 z m 28.15725,-5.48063 c 1.37282,-0.65145 1.66108,-1.59951 1.66108,-5.46303 0,-2.96764 -0.0566,-3.36065 -0.6001,-4.16716 -0.35368,-0.52483 -0.95124,-0.9912 -1.45521,-1.13574 -1.24133,-0.356 -2.45314,0.0788 -3.16543,1.13574 -0.54393,0.80715 -0.6001,1.19882 -0.6001,4.18482 0,3.76289 0.31503,4.79158 1.67243,5.46099 1.06924,0.52729 1.3469,0.52555 2.48733,-0.0156 z m 21.24025,-17.295159 c 0,-1.96785 -2.02263,-4.22162 -4.27321,-4.76152 -1.3211,-0.31693 -3.74077,0.0203 -4.07963,0.5686 -0.082,0.13271 -0.53878,-0.32416 -1.01504,-1.01525 -1.61531,-2.34397 -4.62018,-3.1813302 -7.06865,-1.96982 -0.77625,0.3841 -1.19147,0.47363 -1.25894,0.27148 -0.22116,-0.66255 -2.04105,-2.4128802 -3.03712,-2.9210402 -1.51589,-0.77335 -3.74818,-0.91733 -5.45141,-0.35161 -1.32576,0.44035 -3.29946,2.02188 -3.88363,3.1119702 -0.23403,0.43671 -0.30678,0.43297 -1.28575,-0.0661 -2.08127,-1.0610902 -4.85351,-0.53811 -6.53416,1.23266 -0.78523,0.82735 -1.53539,2.41858 -1.53539,3.25688 0,0.47149 -0.17097,0.53838 -1.38906,0.54348 -2.27977,0.01 -4.16719,1.13747 -4.16719,2.49033 0,0.37272 2.25555,0.41427 22.4896,0.41427 h 22.48958 z M 256.57994,5.7327858 c 1.53848,-0.7278204 4.26973,-1.2308804 5.59567,-1.0306504 0.60157,0.0908 1.13508,-0.1035 2.13931,-0.7793 0.73583,-0.4951802 2.1899,-1.1742802 3.23126,-1.5091302 3.39924,-1.093 7.54948,-0.48859 10.6569,1.5519902 0.98786,0.64871 1.43088,0.76442 2.94512,0.76925 2.27901,0.007 4.2835,0.59461 6.02198,1.7645104 0.94172,0.63374 1.68219,0.92795 2.34257,0.93077 0.53108,0.002 1.64985,0.16516 2.48616,0.36196 l 1.52056,0.35782 0.25029,-0.95727 c 0.13765,-0.52649 0.50303,-1.9602704 0.81194,-3.1861604 l 0.56166,-2.2289002 -1.01221,-1.47264 c -1.24619,-1.81305 -3.38558,-3.31319 -5.49432,-3.85263 -2.33979,-0.59853 -29.69592,-0.59853 -32.03571,0 -2.10817,0.53929 -4.24817,2.03963 -5.49352,3.85145 l -1.0114,1.47148 0.69257,2.7592302 c 0.38092,1.5175804 0.81154,3.2125904 0.95694,3.7666804 l 0.26437,1.00744 1.56159,-1.44576 c 0.85888,-0.79517 2.2126,-1.75373 3.00827,-2.13014 z"
       id="path8"
       inkscape:export-filename="chest.svg"
       inkscape:export-xdpi="96"
       inkscape:export-ydpi="96" /></g></svg>
