<?xml version="1.0" encoding="UTF-8" standalone="no"?>
<!-- Created with Inkscape (http://www.inkscape.org/) -->

<svg
   width="425.92639"
   height="321.68756"
   viewBox="0 0 112.69302 85.113167"
   version="1.1"
   id="svg1"
   xml:space="preserve"
   xmlns="http://www.w3.org/2000/svg"
   xmlns:svg="http://www.w3.org/2000/svg"><defs
     id="defs1" /><g
     id="layer1"
     transform="translate(266.19498,239.95753)"><path
       style="fill:#efeff1;fill-opacity:1;stroke:none"
       d="m -245.31044,-210.16139 c 0.57115,-10.94409 2.65143,-20.53062 8.99583,-29.63333 -4.72914,0 -9.91964,-0.59376 -14.55208,0.4865 -8.37832,1.95378 -14.20968,9.35901 -14.96926,17.76975 -0.23672,2.62122 -0.13948,5.30559 -0.10785,7.93528 0.0111,0.92054 -0.0874,2.22569 0.68305,2.89705 1.19484,1.04119 3.93465,0.54474 5.39822,0.54475 h 14.55209 m 6.08541,0 h 46.83125 l 11.37704,-1.1e-4 c 1.18689,-7e-4 3.33852,0.34427 4.20917,-0.68708 1.22019,-1.44539 0.17171,-5.52831 -0.0453,-7.25031 -0.90818,-7.20827 -3.33551,-16.16528 -9.72221,-20.47077 -2.09295,-1.41093 -4.46508,-1.22494 -6.87708,-1.22505 l -11.37708,-1e-5 h -15.08125 c -2.419,0 -5.37366,-0.43836 -7.67262,0.44022 -2.9245,1.11764 -5.16573,4.10369 -6.70717,6.70356 -3.95668,6.67353 -4.93389,14.87248 -4.9348,22.48955 m 60.06042,-29.63333 c 3.49533,5.77592 6.29537,11.02059 7.61182,17.72708 0.49814,2.53775 0.77917,5.09739 0.99453,7.67266 0.089,1.06439 -0.0838,2.6839 0.66935,3.5464 0.76796,0.87944 2.3844,0.68183 3.42486,0.68606 2.99751,0.0122 5.99667,0.0203 8.99414,-0.001 1.10612,-0.008 2.79475,0.15502 3.38492,-1.02855 0.9572,-1.91962 0.32871,-5.33507 0.31845,-7.4359 -0.0448,-9.17775 -4.83948,-17.61936 -14.02099,-20.3977 -3.65769,-1.10683 -7.60344,-0.76897 -11.37708,-0.76897 m -86.78333,35.45417 v 35.71875 c 0,3.62101 -1.26718,10.12671 1.93886,12.67634 1.67956,1.33568 3.98587,1.08156 5.99864,1.08196 l 12.7,3e-5 v -49.47706 h -20.6375 m 26.45833,49.47708 h 63.23542 v -49.47708 h -18.78542 v 16.93333 c 0,2.64197 0.44897,5.83261 -1.00041,8.18717 -1.06829,1.73547 -2.82277,2.78802 -4.82044,3.06283 -2.92945,0.40299 -6.04353,0.12708 -8.99582,0.12708 -2.95228,0 -6.06637,0.27591 -8.99581,-0.12708 -1.99767,-0.27481 -3.75216,-1.32736 -4.82045,-3.06283 -1.44937,-2.35456 -1.0004,-5.54519 -1.0004,-8.18717 v -16.93333 l -10.05412,1.1e-4 -4.07536,0.54464 -0.68605,3.42455 -0.001,8.99528 v 36.5125 m 69.05625,0 9.525,-3.8e-4 c 1.90742,-0.003 3.91797,0.0904 5.43216,-1.27403 2.9635,-2.6705 1.71159,-9.1503 1.71159,-12.74851 v -35.45416 l -11.37707,1e-5 -4.6045,0.54474 -0.68605,3.42455 -0.001,8.99528 v 36.5125 m -40.74353,-44.70036 c -3.09846,0.75609 -5.08632,4.05656 -4.08892,7.12622 0.46713,1.43764 1.5807,2.44783 2.23946,3.77358 0.84922,1.70902 0.67476,5.36743 3.66873,4.70043 2.17599,-0.48477 1.86694,-2.8523 2.55546,-4.45104 0.73796,-1.71357 2.22305,-2.89015 2.55006,-4.81399 0.66103,-3.88883 -3.144,-7.25778 -6.92479,-6.3352"
       id="path38850" /></g></svg>
