<?xml version="1.0" encoding="UTF-8" standalone="no"?>
<!-- Created with Inkscape (http://www.inkscape.org/) -->

<svg
   width="2184.9211"
   height="2209.79"
   viewBox="0 0 578.09371 584.67359"
   version="1.1"
   id="svg1416"
   inkscape:version="1.3.2 (091e20e, 2023-11-25, custom)"
   sodipodi:docname="chocobi.svg"
   inkscape:export-filename="..\Emotes\courage2.png"
   inkscape:export-xdpi="96"
   inkscape:export-ydpi="96"
   xml:space="preserve"
   xmlns:inkscape="http://www.inkscape.org/namespaces/inkscape"
   xmlns:sodipodi="http://sodipodi.sourceforge.net/DTD/sodipodi-0.dtd"
   xmlns="http://www.w3.org/2000/svg"
   xmlns:svg="http://www.w3.org/2000/svg"><sodipodi:namedview
     id="namedview1418"
     pagecolor="#505050"
     bordercolor="#eeeeee"
     borderopacity="1"
     inkscape:pageshadow="0"
     inkscape:pageopacity="0"
     inkscape:pagecheckerboard="0"
     inkscape:document-units="px"
     showgrid="false"
     inkscape:zoom="0.1767767"
     inkscape:cx="8423.056"
     inkscape:cy="-2220.3153"
     inkscape:window-width="1920"
     inkscape:window-height="1009"
     inkscape:window-x="-8"
     inkscape:window-y="-8"
     inkscape:window-maximized="1"
     inkscape:current-layer="layer5"
     units="px"
     showguides="true"
     inkscape:guide-bbox="true"
     inkscape:snap-nodes="true"
     width="200px"
     inkscape:showpageshadow="0"
     inkscape:deskcolor="#505050"><sodipodi:guide
       position="-1866.3777,-1210.7301"
       orientation="0,-1"
       id="guide70132"
       inkscape:locked="false" /><sodipodi:guide
       position="-1994.0657,-1281.6367"
       orientation="0,-1"
       id="guide83620"
       inkscape:locked="false" /><sodipodi:guide
       position="-2087.1423,-1502.2143"
       orientation="0,-1"
       id="guide143464"
       inkscape:locked="false" /></sodipodi:namedview><defs
     id="defs1413" /><g
     inkscape:groupmode="layer"
     id="layer5"
     inkscape:label="emotes"
     style="display:inline"
     transform="translate(-2126.8051,1569.8189)"><g
       id="g30"
       transform="translate(2289.6355,-1958.7879)"
       style="display:inline"
       inkscape:export-filename="..\..\..\Proyectos\WEBS\STREAMPAGE\streampage\src\assets\svg\chocobi.svg"
       inkscape:export-xdpi="96"
       inkscape:export-ydpi="96"><ellipse
         style="fill:#18181b;fill-opacity:1;stroke:#0e0e10;stroke-width:29.8699;stroke-linecap:round;stroke-miterlimit:4;stroke-dasharray:none;stroke-opacity:1;paint-order:stroke markers fill"
         id="ellipse3"
         cx="239.81737"
         cy="472.24112"
         rx="76.239388"
         ry="68.337196" /><path
         style="fill:#0e0e10;fill-opacity:1;stroke:#0e0e10;stroke-width:33.391;stroke-linecap:round;stroke-linejoin:round;stroke-miterlimit:4;stroke-dasharray:none;stroke-opacity:1;paint-order:markers fill stroke"
         d="m -56.271894,535.84875 c 12.662454,-35.34603 103.92179,-43.13497 198.508484,-36.60613 29.69328,-68.86095 156.56251,4.69887 209.61118,52.88186 29.83908,27.10219 70.70564,98.87772 27.6337,68.80987 -12.82837,-8.9553 35.2329,88.21083 -0.93386,65.41698 -16.70833,-10.53028 38.5642,69.55459 -0.11988,45.29417 -16.99682,-10.65892 50.88522,86.88209 -8.84516,42.03164 8.28275,30.4419 54.10511,89.90583 2.6534,59.74618 51.30751,91.54152 3.15743,53.82348 -4.47301,58.20439 26.16959,35.66246 0.35904,35.72074 0.35904,35.72074 l -23.00266,5.58942 v 0 l -2.27777,24.00921 -171.18236,-0.97535 c 0,0 -10.99296,-16.83648 30.72556,-17.02528 l -135.195507,-5.0079 c 0,0 -2.985693,4.49671 -9.217717,4.38592 l -125.877559,-2.24026 c 3.133459,-22.9576 19.652902,-15.60323 31.996862,-17.70391 -0.21087,-9.23564 -11.346376,-67.59588 45.8226254,-63.02601 8.8932356,-34.67893 -2.2300331,-71.4084 39.8973096,-102.68287 0,0 -109.267451,-2.43854 -91.645284,-23.36913 213.94733,3.11698 375.36838,24.26567 363.6259,-67.39143 -13.25604,-103.47003 -191.23209,-63.02268 -449.5709,-75.4869 -10.9827,-22.54974 -27.14218,-53.90617 -12.56955,-69.60332 6.98934,-7.52866 27.9261,12.87469 40.501892,26.03867 14.573722,-23.02571 42.466229,-12.87687 43.574317,-7.01062 z"
         id="path16"
         sodipodi:nodetypes="ccssssccccccccccscccccscsccc" /><ellipse
         style="fill:#0e0e10;fill-opacity:1;stroke:#0e0e10;stroke-width:29.8699;stroke-linecap:round;stroke-miterlimit:4;stroke-dasharray:none;stroke-opacity:1;paint-order:markers stroke fill"
         id="ellipse16"
         cx="81.018265"
         cy="472.94925"
         rx="76.239388"
         ry="68.337196" /><path
         style="fill:#ffffff;fill-opacity:1;stroke:#0e0e10;stroke-width:25.2471;stroke-linecap:round;stroke-linejoin:round;stroke-miterlimit:4;stroke-dasharray:none;stroke-opacity:1;paint-order:stroke markers fill"
         d="m -66.924617,588.19449 25.090843,141.10795 C 99.027399,781.08564 333.03858,751.63471 347.07582,666.40143 327.30917,545.61192 -60.177958,552.13242 -66.924617,588.19449 Z"
         id="path17"
         sodipodi:nodetypes="cccc" /><path
         style="fill:#ffffff;fill-opacity:1;stroke:#0e0e10;stroke-width:6.28216;stroke-linecap:butt;stroke-linejoin:miter;stroke-miterlimit:4;stroke-dasharray:none;stroke-opacity:1"
         d="M 98.093082,732.96301 71.179021,589.14413 173.65959,589.33041 165.79237,733.14935 Z"
         id="path18" /><path
         style="fill:none;stroke:#0e0e10;stroke-width:6.28216;stroke-linecap:butt;stroke-linejoin:miter;stroke-miterlimit:4;stroke-dasharray:none;stroke-opacity:1"
         d="M 23.561783,589.14413 18.178896,729.62271"
         id="path19" /><path
         style="fill:none;stroke:#0e0e10;stroke-width:6.27226px;stroke-linecap:butt;stroke-linejoin:miter;stroke-opacity:1"
         d="m 245.77158,728.33717 11.126,-128.85778"
         id="path20" /><path
         style="fill:#fafa85;fill-opacity:1;stroke:#0e0e10;stroke-width:12.9683;stroke-linecap:round;stroke-linejoin:round;stroke-miterlimit:4;stroke-dasharray:none;stroke-opacity:1;paint-order:stroke markers fill"
         d="m -56.271796,535.84875 c 12.662439,-35.34603 103.921778,-43.13497 198.508506,-36.60613 29.69328,-68.86095 159.51756,4.64027 212.68728,52.68961 30.41587,27.48669 66.09141,96.76284 23.01947,66.69499 -12.8284,-8.9553 35.23291,88.21084 -0.93385,65.41699 -16.70839,-10.5303 38.56413,69.55458 -0.11989,45.29417 -16.99678,-10.6589 50.88519,86.88211 -8.84515,42.03163 8.28278,30.44187 54.10508,89.9058 2.6534,59.74618 51.30748,91.54152 3.15728,53.82345 -4.47301,58.20439 26.16956,35.66249 1.89568,38.02787 1.89568,38.02787 l -23.00262,5.58942 v 0 l -2.27747,24.00918 -171.18238,-0.97535 c 0,0 -10.99303,-16.83645 30.72553,-17.02528 L 67.189263,933.93898 c 0,0 -2.985693,4.49668 -9.217748,4.38589 L -67.905079,936.0843 c 3.13346,-22.9576 19.652903,-15.60319 31.996851,-17.70391 -0.210871,-9.23564 -11.346377,-67.59588 45.8226399,-63.02601 8.8932321,-34.67896 -2.2300638,-71.4084 39.8972941,-102.68287 0,0 -109.267451,-2.43854 -91.645268,-23.36913 213.946512,3.11704 375.367532,24.26567 363.625052,-67.39147 -13.25604,-103.47008 -191.23209,-63.02273 -449.57091,-75.48695 -10.9827,-22.54974 -27.14218,-53.90617 -12.56955,-69.60332 6.98932,-7.52866 27.9261,12.87478 40.501888,26.03867 14.573763,-23.02571 42.466221,-12.87681 43.574339,-7.01055 z"
         id="path21"
         sodipodi:nodetypes="ccssssccccccccccscccccscsccc" /><ellipse
         style="fill:#ffffff;fill-opacity:1;stroke:#0e0e10;stroke-width:12.2561;stroke-linecap:round;stroke-miterlimit:4;stroke-dasharray:none;stroke-opacity:1;paint-order:stroke markers fill"
         id="ellipse21"
         ry="68.337196"
         rx="76.239388"
         cy="472.24112"
         cx="239.81737" /><ellipse
         style="fill:#ffffff;fill-opacity:1;stroke:#0e0e10;stroke-width:12.2561;stroke-linecap:round;stroke-miterlimit:4;stroke-dasharray:none;stroke-opacity:1;paint-order:markers stroke fill"
         id="ellipse22"
         cx="81.018265"
         cy="472.94925"
         rx="76.239388"
         ry="68.337196" /><path
         style="fill:none;stroke:#0e0e10;stroke-width:6.28311;stroke-linecap:round;stroke-linejoin:miter;stroke-miterlimit:4;stroke-dasharray:none;stroke-opacity:1"
         d="M 7.7494045,850.73902 C 6.46875,860.88527 6.8481941,871.61628 7.2957254,877.53403"
         id="path22"
         sodipodi:nodetypes="cc" /><path
         style="fill:none;stroke:#0e0e10;stroke-width:6.28216;stroke-linecap:round;stroke-linejoin:miter;stroke-miterlimit:4;stroke-dasharray:none;stroke-opacity:1"
         d="m 68.283485,937.42219 c 3.526272,-3.1669 4.672689,-13.16315 3.208737,-21.36356"
         id="path23"
         sodipodi:nodetypes="cc" /><path
         style="fill:none;stroke:#0e0e10;stroke-width:6.28216;stroke-linecap:round;stroke-linejoin:miter;stroke-miterlimit:4;stroke-dasharray:none;stroke-opacity:1"
         d="m 347.85457,938.81756 c 0.86131,-10.03885 0.0461,-20.42429 -0.98335,-28.91816"
         id="path24"
         sodipodi:nodetypes="cc" /><g
         id="g26"
         transform="matrix(25.039403,0,0,22.444078,-408.72451,2765.0433)"><path
           style="fill:none;stroke:#0e0e10;stroke-width:0.264583px;stroke-linecap:butt;stroke-linejoin:miter;stroke-opacity:1"
           d="m 16.721049,-103.27294 c 0.140317,0.0468 5.91668,1.96443 5.91668,1.96443"
           id="path25" /><path
           style="fill:#0e0e10;fill-opacity:1;stroke:#0e0e10;stroke-width:0.1;stroke-linecap:butt;stroke-linejoin:miter;stroke-miterlimit:4;stroke-dasharray:none;stroke-opacity:1"
           d="m 19.349663,-102.32568 c -0.421597,2.17031 2.396935,2.04617 2.439127,0.81028 z"
           id="path26"
           sodipodi:nodetypes="ccc" /></g><g
         id="g28"
         transform="matrix(-25.039403,0,0,22.444078,729.83042,2765.0456)"><path
           style="fill:none;stroke:#0e0e10;stroke-width:0.264583px;stroke-linecap:butt;stroke-linejoin:miter;stroke-opacity:1"
           d="m 16.721049,-103.27294 c 0.140317,0.0468 5.91668,1.96443 5.91668,1.96443"
           id="path27" /><path
           style="fill:#0e0e10;fill-opacity:1;stroke:#0e0e10;stroke-width:0.1;stroke-linecap:butt;stroke-linejoin:miter;stroke-miterlimit:4;stroke-dasharray:none;stroke-opacity:1"
           d="m 19.349663,-102.32568 c -0.421597,2.17031 2.396935,2.04617 2.439127,0.81028 z"
           id="path28"
           sodipodi:nodetypes="ccc" /></g><path
         style="fill:#fafa85;fill-opacity:1;stroke:#0e0e10;stroke-width:6.28216;stroke-linecap:round;stroke-linejoin:round;stroke-miterlimit:4;stroke-dasharray:none;stroke-opacity:1"
         d="m 262.74807,860.82266 c -78.95157,-4.83613 -91.10613,26.14131 -60.36655,78.12428 -14.82221,-2.58547 -28.24612,-3.3881 -37.49251,8.67078"
         id="path29"
         sodipodi:nodetypes="ccc" /><path
         style="fill:#fafa85;fill-opacity:1;stroke:#0e0e10;stroke-width:6.28216;stroke-linecap:round;stroke-linejoin:miter;stroke-miterlimit:4;stroke-dasharray:none;stroke-opacity:1"
         d="m 235.07724,826.53852 c 20.97781,93.29583 46.71564,90.64009 75.43769,27.8287"
         id="path30"
         sodipodi:nodetypes="cc" /></g></g></svg>
