<?xml version="1.0" encoding="UTF-8" standalone="no"?>
<!-- Created with Inkscape (http://www.inkscape.org/) -->

<svg
   width="191.54114"
   height="211.15001"
   viewBox="0 0 50.678592 55.866773"
   version="1.1"
   id="svg1"
   inkscape:version="1.3.2 (091e20e, 2023-11-25, custom)"
   xml:space="preserve"
   xmlns:inkscape="http://www.inkscape.org/namespaces/inkscape"
   xmlns:sodipodi="http://sodipodi.sourceforge.net/DTD/sodipodi-0.dtd"
   xmlns="http://www.w3.org/2000/svg"
   xmlns:svg="http://www.w3.org/2000/svg"><sodipodi:namedview
     id="namedview1"
     pagecolor="#4c4c4c"
     bordercolor="#6f6f6f"
     borderopacity="1"
     inkscape:showpageshadow="false"
     inkscape:pageopacity="0.0"
     inkscape:pagecheckerboard="0"
     inkscape:deskcolor="#4c4c4c"
     inkscape:document-units="px" /><defs
     id="defs1" /><g
     inkscape:label="Capa 1"
     inkscape:groupmode="layer"
     id="layer1"
     transform="translate(-224.38805,87.824882)"><path
       style="fill:#b5a8f1;fill-opacity:1"
       d="m 272.14533,-32.042543 c -0.21828,-0.08044 -2.39117,-2.12603 -4.82865,-4.545758 -2.43747,-2.419727 -4.43177,-4.211381 -4.43177,-3.981453 0,0.229929 0.17731,1.002522 0.39401,1.716873 0.21671,0.714352 0.3953,1.391576 0.39688,1.504943 0.002,0.113367 -7.40878,0.172898 -16.46745,0.132292 l -16.47031,-0.07383 -1.47809,-0.69316 c -1.87881,-0.881077 -3.29768,-2.299945 -4.17875,-4.17875 l -0.69316,-1.47809 v -18.917707 -18.9177 l 0.69316,-1.47809 c 0.88107,-1.87881 2.29994,-3.297677 4.17875,-4.178757 l 1.47809,-0.69315 h 18.9177 18.91771 l 1.47809,0.69315 c 1.87881,0.88108 3.29768,2.299947 4.17875,4.178757 l 0.69316,1.47809 0.0716,23.98987 0.0716,23.989879 -0.60074,0.672555 c -0.6215,0.695812 -1.62956,1.034665 -2.32052,0.780036 z m -28.7479,-19.97986 0.6592,-0.8423 -1.63222,-0.8337 c -0.89771,-0.45854 -1.63221,-1.00224 -1.63221,-1.20822 0,-0.20599 0.1786,-0.32527 0.39688,-0.26507 0.21828,0.0602 1.23031,0.34325 2.24896,0.629 2.66948,0.74885 9.76593,0.74885 12.43541,0 1.01865,-0.28575 2.03068,-0.5688 2.24896,-0.629 0.21828,-0.0602 0.39688,0.0591 0.39688,0.26507 0,0.20598 -0.73926,0.75212 -1.64279,1.21362 l -1.64279,0.83911 0.71674,0.85551 0.71675,0.85552 1.93894,-0.40557 c 3.46045,-0.72385 6.62831,-2.56207 7.33659,-4.25724 0.84536,-2.02321 -1.23968,-11.10156 -3.50611,-15.26572 -0.47071,-0.86485 -1.09261,-1.53587 -1.81674,-1.96024 -1.53212,-0.89788 -4.00749,-1.86661 -5.32443,-2.0837 -1.03027,-0.16984 -1.13425,-0.13016 -1.49698,0.57128 l -0.3898,0.7538 -3.75553,-0.0114 -3.75553,-0.0114 -0.37834,-0.72208 c -0.4616,-0.881 -0.62117,-0.88527 -3.14403,-0.0841 -2.9186,0.92683 -4.7103,2.09619 -5.53586,3.61301 -1.53885,2.82739 -3.04368,8.01603 -3.55951,12.27318 -0.19806,1.63462 -0.17516,2.2954 0.10259,2.96015 0.65508,1.56781 3.92726,3.50723 7.06807,4.18924 2.28059,0.49522 2.20741,0.50612 2.9469,-0.43878 z m -0.273,-6.95546 c -2.04371,-0.8836 -2.2749,-4.36995 -0.39086,-5.89443 0.2248,-0.1819 0.80811,-0.33072 1.29623,-0.33072 2.35024,0 3.45648,3.91975 1.60952,5.70303 -0.8398,0.81084 -1.52032,0.95212 -2.51489,0.52212 z m 11.42611,0.1393 c -2.7468,-1.12424 -2.15467,-6.38374 0.71557,-6.35604 2.11602,0.0204 3.32668,2.82993 2.17727,5.05265 -0.32296,0.62453 -1.83401,1.63898 -2.28903,1.53675 -0.0411,-0.009 -0.31277,-0.11424 -0.60381,-0.23336 z"
       id="path6"
       inkscape:export-filename="discord.svg"
       inkscape:export-xdpi="96"
       inkscape:export-ydpi="96" /></g></svg>
