<?xml version="1.0" encoding="UTF-8" standalone="no"?>
<!-- Created with Inkscape (http://www.inkscape.org/) -->

<svg
   width="191"
   height="191.14204"
   viewBox="0 0 50.535416 50.572999"
   version="1.1"
   id="svg1"
   inkscape:version="1.3.2 (091e20e, 2023-11-25, custom)"
   xml:space="preserve"
   xmlns:inkscape="http://www.inkscape.org/namespaces/inkscape"
   xmlns:sodipodi="http://sodipodi.sourceforge.net/DTD/sodipodi-0.dtd"
   xmlns="http://www.w3.org/2000/svg"
   xmlns:svg="http://www.w3.org/2000/svg"><sodipodi:namedview
     id="namedview1"
     pagecolor="#4c4c4c"
     bordercolor="#6f6f6f"
     borderopacity="1"
     inkscape:showpageshadow="false"
     inkscape:pageopacity="0.0"
     inkscape:pagecheckerboard="0"
     inkscape:deskcolor="#4c4c4c"
     inkscape:document-units="px" /><defs
     id="defs1" /><g
     inkscape:label="Capa 1"
     inkscape:groupmode="layer"
     id="layer1"
     transform="translate(-343.78229,-2.5324416)"><path
       style="fill:#fafa85;fill-opacity:1"
       d="m 355.55626,53.024103 c -5.1998,-0.921463 -9.42942,-4.550993 -11.16952,-9.584813 -0.59964,-1.734657 -0.60444,-1.858611 -0.60444,-15.63914 0,-13.828078 0.003,-13.898597 0.61165,-15.660805 1.4964,-4.3308254 4.67074,-7.5000734 9.01692,-9.0024724 1.73466,-0.599641 1.85861,-0.604431 15.63914,-0.604431 13.78053,0 13.90449,0.0048 15.63914,0.604431 4.34619,1.502399 7.52053,4.671647 9.01693,9.0024724 0.60889,1.762208 0.61164,1.832727 0.61164,15.660805 0,13.828077 -0.003,13.898595 -0.61164,15.660804 -1.48471,4.296977 -4.49813,7.333617 -8.9345,9.003348 -1.53869,0.579123 -1.80469,0.590308 -15.06011,0.633277 -7.42156,0.02406 -13.7914,-0.009 -14.15521,-0.07348 z m 17.21604,-11.62766 c 4.88993,-1.451658 8.42235,-4.984082 9.87401,-9.874003 0.55578,-1.872174 0.55578,-5.572406 0,-7.44458 -1.45166,-4.889922 -4.98408,-8.422345 -9.87401,-9.874004 -1.87217,-0.555787 -5.5724,-0.555787 -7.44458,0 -4.88992,1.451659 -8.42234,4.984082 -9.874,9.874004 -0.55579,1.872174 -0.55579,5.572406 0,7.44458 1.4332,4.827731 4.77599,8.230802 9.62754,9.801149 1.90094,0.615293 5.74129,0.651671 7.69104,0.07285 z m -6.28879,-5.606093 c -2.87418,-1.026993 -4.7057,-2.95846 -5.54585,-5.848505 -0.78523,-2.701082 0.10561,-6.02356 2.16805,-8.086001 3.217,-3.217004 8.6716,-3.217004 11.88861,0 3.217,3.217004 3.217,8.671607 0,11.888611 -2.15198,2.151983 -5.77589,3.023127 -8.51081,2.045895 z m 21.21663,-22.696939 c 1.67803,-1.099487 1.33419,-3.9798824 -0.57007,-4.7755314 -2.4694,-1.03178 -4.77787,1.3470215 -3.63809,3.7489284 0.77551,1.634261 2.60106,2.079614 4.20816,1.026603 z"
       id="path4"
       inkscape:export-filename="ig.svg"
       inkscape:export-xdpi="96"
       inkscape:export-ydpi="96" /></g></svg>
