<?xml version="1.0" encoding="UTF-8" standalone="no"?>
<!-- Created with Inkscape (http://www.inkscape.org/) -->

<svg
   width="328.5"
   height="370"
   viewBox="0 0 86.915623 97.895833"
   version="1.1"
   id="svg1"
   inkscape:version="1.3.2 (091e20e, 2023-11-25, custom)"
   xml:space="preserve"
   xmlns:inkscape="http://www.inkscape.org/namespaces/inkscape"
   xmlns:sodipodi="http://sodipodi.sourceforge.net/DTD/sodipodi-0.dtd"
   xmlns="http://www.w3.org/2000/svg"
   xmlns:svg="http://www.w3.org/2000/svg"><sodipodi:namedview
     id="namedview1"
     pagecolor="#4c4c4c"
     bordercolor="#6f6f6f"
     borderopacity="1"
     inkscape:showpageshadow="false"
     inkscape:pageopacity="0.0"
     inkscape:pagecheckerboard="0"
     inkscape:deskcolor="#4c4c4c"
     inkscape:document-units="px"
     inkscape:zoom="0.57447917"
     inkscape:cx="570.0816"
     inkscape:cy="-397.75159"
     inkscape:window-width="1920"
     inkscape:window-height="1009"
     inkscape:window-x="-8"
     inkscape:window-y="-8"
     inkscape:window-maximized="1"
     inkscape:current-layer="layer1" /><defs
     id="defs1" /><g
     inkscape:label="Capa 1"
     inkscape:groupmode="layer"
     id="layer1"
     transform="translate(-111.74394,176.37051)"><path
       style="fill:#1a9964;fill-opacity:1"
       d="m 111.74394,-127.42259 v -48.94792 h 16.27188 16.27187 v 10.98021 10.98021 h 5.42396 5.42396 v -5.55625 -5.55625 h 5.42395 5.42396 v -5.42396 -5.42396 h 16.27188 16.27187 v 16.27188 16.27187 h -5.42396 -5.42396 v 5.42396 5.42396 h -5.42395 -5.42396 v 5.55625 5.55625 h 5.42396 5.42395 v 5.42396 5.42396 l 5.49011,-5e-5 5.4901,-4e-5 -0.0701,16.271907 -0.0701,16.271917 h -16.28302 -16.28301 l 0.0813,-5.42425 0.0813,-5.424247 -5.4901,2.9e-4 -5.4901,3e-4 v -5.55625 -5.556247 h -5.42396 -5.42396 v 10.980197 10.980207 h -16.27199 -16.27188 z"
       id="path10" /></g></svg>
