<?xml version="1.0" encoding="UTF-8" standalone="no"?>
<!-- Created with Inkscape (http://www.inkscape.org/) -->

<svg
   width="564.75775mm"
   height="562.63019mm"
   viewBox="0 0 564.75775 562.63019"
   version="1.1"
   id="svg5"
   inkscape:version="1.3.2 (091e20e, 2023-11-25, custom)"
   sodipodi:docname="logo.svg"
   xml:space="preserve"
   inkscape:export-filename="..\Youtube\water_mark.png"
   inkscape:export-xdpi="96"
   inkscape:export-ydpi="96"
   xmlns:inkscape="http://www.inkscape.org/namespaces/inkscape"
   xmlns:sodipodi="http://sodipodi.sourceforge.net/DTD/sodipodi-0.dtd"
   xmlns="http://www.w3.org/2000/svg"
   xmlns:svg="http://www.w3.org/2000/svg"><sodipodi:namedview
     id="namedview7"
     pagecolor="#505050"
     bordercolor="#eeeeee"
     borderopacity="1"
     inkscape:showpageshadow="0"
     inkscape:pageopacity="0"
     inkscape:pagecheckerboard="0"
     inkscape:deskcolor="#505050"
     inkscape:document-units="px"
     showgrid="false"
     inkscape:zoom="0.13055263"
     inkscape:cx="-6135.4569"
     inkscape:cy="1620.0364"
     inkscape:window-width="1920"
     inkscape:window-height="1009"
     inkscape:window-x="-8"
     inkscape:window-y="-8"
     inkscape:window-maximized="1"
     inkscape:current-layer="layer1"
     showguides="true"
     inkscape:export-bgcolor="#00000000"><sodipodi:guide
       position="2193.4541,-1742.2962"
       orientation="0,-1"
       id="guide123"
       inkscape:locked="false" /><sodipodi:guide
       position="2219.5496,-1722.2333"
       orientation="0,-1"
       id="guide124"
       inkscape:locked="false" /><sodipodi:guide
       position="2194.7232,-1730.8466"
       orientation="1,0"
       id="guide125"
       inkscape:locked="false" /><sodipodi:guide
       position="2205.6164,-1742.2962"
       orientation="1,0"
       id="guide126"
       inkscape:locked="false" /></sodipodi:namedview><defs
     id="defs2"><clipPath
       clipPathUnits="userSpaceOnUse"
       id="clipPath9703"><path
         id="path9705"
         style="fill:#ff0000;fill-opacity:1;fill-rule:nonzero;stroke:none;stroke-width:0.520134"
         d="m 635.47705,673.29662 v 80.80565 h 126.99699 v -80.80565 z m 12.28309,52.63207 c 0.43274,0.005 0.78951,0.0883 1.07074,0.22451 0.75067,0.20644 1.16735,1.12612 0.53741,2.26949 0.29035,-0.11776 0.56156,-0.16957 0.80661,-0.16762 0.6561,0.005 1.11645,0.39454 1.23227,0.91937 0.33504,0.0373 0.6595,0.22803 0.89804,0.5689 0.1199,-0.0365 0.24148,-0.0532 0.36166,-0.0508 0.74724,0.0148 1.43336,0.77256 1.22617,2.15672 -0.0324,0.21662 -0.0568,0.43424 -0.0864,0.6512 0.29242,-0.37375 0.66322,-0.55956 1.023,-0.57398 0.6682,-0.0267 1.28945,0.54252 1.3044,1.58072 0.13302,-0.0457 0.26874,-0.0668 0.40229,-0.064 0.30728,0.006 0.60317,0.13899 0.831,0.38604 0.29961,-0.27568 0.64257,-0.40697 0.96814,-0.40433 0.84878,0.007 1.57299,0.89587 1.05855,2.32943 -0.0435,0.12131 -0.0954,0.23923 -0.14629,0.35759 0.0413,-0.0188 0.0827,-0.0369 0.12394,-0.0559 0.0723,-0.0334 0.14506,-0.0671 0.2174,-0.10056 0.41124,-0.18949 0.78617,-0.27035 1.11341,-0.27023 0.37139,1.5e-4 0.68078,0.10606 0.91125,0.27937 0.11845,-0.0251 0.23393,-0.0407 0.34337,-0.0427 0.69928,-0.0123 1.18407,0.43031 1.25868,1.02504 0.12326,-0.0292 0.24354,-0.0433 0.35861,-0.0426 1.01883,0.005 1.63657,1.12091 0.78833,2.33959 0.48934,0.62184 0.28058,1.68332 -1.04941,2.30911 -0.75874,0.35702 -1.50245,0.74398 -2.23597,1.14998 -0.51177,0.2789 -1.00536,0.5886 -1.48421,0.9204 -1.77588,1.23059 -3.16821,-0.10054 -2.41578,-1.44459 -0.0402,-0.16718 -0.0581,-0.35145 -0.0447,-0.55366 -0.11228,0.0666 -0.22818,0.12649 -0.33931,0.19505 -0.1693,0.10084 -0.3298,0.21601 -0.48864,0.33219 -1.55159,1.13514 -2.85159,0.22899 -2.61185,-0.94375 -0.93555,0.28877 -1.93089,-0.5914 -1.48116,-2.24715 0.0343,-0.12639 0.0652,-0.25337 0.0945,-0.38095 -0.38414,0.14838 -0.80252,0.0973 -1.13576,-0.16864 -0.54023,-0.072 -1.05608,-0.53291 -1.2211,-1.40396 -0.4311,0.3551 -0.9879,0.32441 -1.50249,0.10566 -0.0426,0.63415 -0.21923,0.97822 -0.84624,0.29257 -0.16919,-0.18504 -0.37467,-0.34332 -0.50794,-0.55569 -0.18396,-0.29328 -0.19494,-0.53172 -0.23365,-0.83709 -0.0548,-0.53901 -0.0829,-1.07936 -0.10261,-1.62034 -0.0154,0.0246 -0.0337,0.0507 -0.0914,0.14731 -0.98962,1.65844 -2.55323,1.31556 -2.77743,0.128 -0.18901,-0.17257 -0.33936,-0.40648 -0.40839,-0.70909 -0.13953,-0.20645 -0.26136,-0.45768 -0.35657,-0.75684 -0.0871,-0.27402 -0.17333,-0.54871 -0.23467,-0.82998 -0.17658,-0.7604 -0.32357,-1.53355 -0.24179,-2.31825 0.0132,-0.13075 0.0209,-0.26176 0.0386,-0.39213 0.0735,-0.56061 0.23624,-1.11383 0.52929,-1.60002 0.1277,-0.20104 0.22801,-0.37512 0.38704,-0.55468 0.33621,-0.37944 0.67381,-0.63015 1.12866,-0.84928 0.1122,-0.0498 0.22346,-0.1032 0.33726,-0.14933 0.44476,-0.18034 0.91569,-0.2962 1.37958,-0.41347 0.39262,-0.082 0.79041,-0.15635 1.19266,-0.16559 0.0411,-10e-4 0.081,-0.002 0.12089,-10e-4 z" /></clipPath><clipPath
       clipPathUnits="userSpaceOnUse"
       id="clipPath239"><rect
         style="fill:none;fill-opacity:1;stroke:#000000;stroke-width:4.816;stroke-opacity:1"
         id="rect240"
         width="333.45688"
         height="332.20068"
         x="70.858017"
         y="-1017.7245"
         inkscape:export-filename="..\..\Twch\logo.png"
         inkscape:export-xdpi="96"
         inkscape:export-ydpi="96"
         ry="22.259142" /></clipPath><clipPath
       clipPathUnits="userSpaceOnUse"
       id="clipPath240"><rect
         style="fill:none;fill-opacity:1;stroke:#000000;stroke-width:8.1566;stroke-opacity:1"
         id="rect241"
         width="564.75775"
         height="562.63019"
         x="-1790.4082"
         y="-2716.2937"
         inkscape:export-filename="..\..\Twch\logo.png"
         inkscape:export-xdpi="96"
         inkscape:export-ydpi="96"
         ry="37.699093" /></clipPath><clipPath
       clipPathUnits="userSpaceOnUse"
       id="clipPath241"><rect
         style="fill:none;fill-opacity:1;stroke:#000000;stroke-width:8.1566;stroke-opacity:1"
         id="rect242"
         width="564.75775"
         height="562.63019"
         x="-1790.4082"
         y="-2716.2937"
         inkscape:export-filename="..\..\Twch\logo.png"
         inkscape:export-xdpi="96"
         inkscape:export-ydpi="96"
         ry="37.699093" /></clipPath></defs><g
     inkscape:label="Capa 1"
     inkscape:groupmode="layer"
     id="layer1"
     transform="translate(1790.4082,2716.2937)"><g
       id="g242"><rect
         style="fill:#29292e;fill-opacity:1;stroke-width:8.15661"
         id="rect3"
         width="564.75775"
         height="562.63019"
         x="-1790.4082"
         y="-2716.2937"
         inkscape:export-filename="..\..\Twch\logo.png"
         inkscape:export-xdpi="96"
         inkscape:export-ydpi="96"
         ry="37.699093"
         clip-path="url(#clipPath241)" /><path
         style="fill:#3e3e46;fill-opacity:1;stroke:none;stroke-width:2.07302;stroke-linecap:round;stroke-dasharray:none;stroke-opacity:1"
         d="m -1790.4082,-2365.1064 c 38.1616,-26.1656 27.9545,-79.004 90.8577,-113.3799 62.9031,-34.3759 317.9382,-139.2144 328.8137,-171.9101 10.8754,-32.6955 22.8942,-65.8974 22.8942,-65.8974 h 122.1921 c 0,0 0,204.6857 0,209.2574 0,4.5715 -112.5318,112.9948 -96.3574,151.9496 16.1744,38.9547 -80.2116,201.3858 -80.2116,201.3858 l -388.1887,0.037 z"
         id="path182"
         clip-path="url(#clipPath240)" /><g
         id="g239"
         transform="matrix(1.6936455,0,0,1.6936455,-1910.4166,-992.62918)"
         clip-path="url(#clipPath239)"><path
           style="fill:#6f69c7;fill-opacity:1;stroke-width:5.90021"
           d="m 363.18619,-893.94427 c 0,0 4.05299,-4.26754 4.67997,-9.54939 0.62696,-5.28185 -0.94046,-14.50713 -2.32873,-18.80629 -1.38827,-4.29914 -7.74152,-19.58158 -10.40148,-27.11816 -2.65997,-7.53655 -8.36253,-14.2612 -10.60167,-16.05253 -2.23914,-1.79131 -21.67491,-12.00179 -25.88451,-13.34529 -4.20957,-1.34348 -21.90643,-7.43003 -28.27135,-7.43003 -6.36492,0 -13.14955,-0.27062 -13.14955,-0.27062 z"
           id="path183" /><path
           style="fill:#363e62;fill-opacity:1;stroke-width:5.90021"
           d="m 344.82593,-894.53588 c 2.26658,-0.47955 15.56372,0.3306 15.56372,0.3306 0,0 3.09821,-3.64641 3.08781,-6.24546 -0.0103,-2.59906 -2.89493,-15.06567 -2.89493,-15.06567 0,0 -9.24126,-22.45452 -19.72046,-30.07601 -10.47919,-7.62145 -12.72923,-15.22036 -15.72553,-17.53541 -2.9963,-2.31503 -33.26981,-16.49987 -38.01975,-18.27319 -4.74994,-1.77331 -23.42496,-7.91376 -35.60261,-9.05846 -12.17766,-1.14466 -25.9232,0.35404 -29.058,1.07479 -3.1348,0.72078 -12.58399,3.85133 -15.89792,5.82179 -3.31393,1.97043 -12.5403,8.81179 -16.02359,14.25839 -3.48329,5.44661 -6.49601,9.92484 -4.68661,11.77986 1.80941,1.855 3.05979,4.70382 3.05979,4.70382 z"
           id="path184" /><path
           style="fill:#312a2a;fill-opacity:1;stroke-width:5.90021"
           d="m 88.953022,-685.47837 37.846948,0.26982 20.5238,-46.2248 -17.93804,-3.24181 c -12.66076,16.15431 -25.40621,32.33397 -40.432708,49.19679 z"
           id="path185"
           sodipodi:nodetypes="ccccc" /><path
           style="fill:#312a2a;fill-opacity:1;stroke-width:5.90021"
           d="m 155.16283,-805.18056 22.80243,-61.03929 66.30173,16.60782 c 0,0 -3.87932,3.22246 -4.14956,3.21246 -0.27024,-0.0101 -12.70798,1.39689 -14.72484,4.7934 -2.01685,3.39651 -2.09033,14.68745 -2.04042,15.78825 0.0499,1.1008 -0.91105,5.54302 -0.91105,5.54302 l -2.14966,-1.41751 c 0,0 -3.34638,-7.22209 -8.49501,-8.16657 -5.14862,-0.94446 -11.5366,-2.83247 -20.27908,3.3348 -8.74247,6.16726 -30.91556,22.75557 -33.63505,22.04961 z"
           id="path186" /><path
           style="fill:#312a2a;fill-opacity:1;stroke-width:5.90021"
           d="m 279.19491,-685.52393 41.73232,-0.044 c 0,0 10.839,-36.86632 10.52234,-50.35616 -0.31665,-13.48983 -1.26666,-32.27136 -1.39332,-37.28876 -0.12665,-5.01737 -0.5017,-33.74305 0.75999,-40.42788 1.26169,-6.68483 5.50995,-29.5556 7.85323,-34.85041 2.34331,-5.29482 6.07502,-12.84809 6.34312,-12.8142 0.2681,0.0339 -14.41976,-3.55973 -14.41976,-3.55973 0,0 -13.6448,14.05636 -26.54227,15.67604 -12.89746,1.61969 -23.95147,5.79563 -31.54745,5.19852 -7.59598,-0.59711 -14.17225,-2.17436 -14.17225,-2.17436 l -1.42797,3.81788 c 0,0 5.64338,3.30531 6.53162,8.26929 0.88825,4.96395 -0.44298,8.83277 -1.00619,11.18113 -0.56322,2.34839 -10.39757,8.11681 -10.39757,8.11681 l -1.00475,4.45108 0.36026,1.33895 c 0,0 8.37088,-2.61675 12.80415,-2.55341 4.43328,0.0633 11.52653,1.26664 13.04651,5.44658 1.51998,4.17997 1.20331,17.28981 -0.31667,22.16639 -1.51998,4.87662 -6.33325,17.98646 -7.91656,23.24304 -1.58332,5.25661 -7.02992,21.27975 -7.02992,21.27975 0,0 -0.29639,1.37163 -0.15833,2.53331 0.13806,1.16168 6.07667,13.55788 8.09295,18.29744 2.01628,4.73959 7.67263,20.10524 8.47957,26.03418 z"
           id="path187"
           sodipodi:nodetypes="ccssssscssccsscccsssscsssc" /><path
           style="fill:#e8d2bb;fill-opacity:1;stroke-width:5.90021"
           d="m 184.89076,-944.19878 c -1.66437,3.09002 -3.24026,6.98614 -3.24026,6.98614 0,0 -3.71102,-2.76362 -5.69354,-4.05468 -1.98253,-1.29107 -9.99104,-5.53644 -14.55914,-4.24598 -4.56811,1.29045 -11.25859,5.24234 -12.42408,9.01935 -1.16549,3.77703 -1.39997,8.92791 -0.34238,10.98 1.0576,2.05205 6.95987,7.86095 8.78906,8.69502 1.82918,0.83408 14.84123,3.77228 14.84123,3.77228 0,0 -0.54893,15.17179 1.61656,18.87645 2.1655,3.70467 6.03594,16.74099 7.31567,16.61705 1.27973,-0.12395 29.92224,19.63722 29.92224,19.63722 0,0 29.42492,9.32154 35.35486,10.13137 5.92994,0.80987 42.60463,4.85278 57.57958,-1.40446 14.97495,-6.25726 26.54227,-15.67603 26.54227,-15.67603 0,0 10.70327,5.49846 16.17453,4.60116 5.47127,-0.89731 20.81829,-1.94639 25.20392,-6.61117 4.38565,-4.66479 7.36952,-9.65804 6.776,-12.83455 -0.59354,-3.1765 -1.91455,-6.23755 -7.46725,-9.83469 -5.55273,-3.59714 -10.8059,-5.24481 -16.07376,-5.21398 -5.26785,0.0308 -25.37677,3.28734 -25.37677,3.28734 l 7.61625,-15.17256 -11.74473,-16.23825 c -46.45487,-10.88662 -90.41251,-41.36686 -140.81026,-21.31703 z"
           id="path188"
           sodipodi:nodetypes="ccssssscsscsscssssscccc" /><path
           style="fill:#e19596;fill-opacity:1;stroke-width:5.90021"
           d="m 212.64995,-895.96762 c -4.22548,-0.47289 -21.07005,7.30028 -25.40857,12.70037 -4.33852,5.4001 -7.8849,13.55315 -7.8849,14.53481 0,0.98166 1.07665,10.9882 5.2566,13.42649 4.17995,2.43832 10.4182,3.9583 14.24982,1.96332 3.83162,-1.99499 13.24846,-9.92251 17.42565,-11.39987 4.1772,-1.47735 17.27378,-16.26764 19.82641,-17.16331 2.55262,-0.89564 7.62633,-6.15447 7.62633,-6.15447 0,0 -6.58124,0.68376 -12.9555,-1.32426 -6.37426,-2.00801 -18.13584,-6.58308 -18.13584,-6.58308 z"
           id="path189" /><path
           style="fill:#312a2a;fill-opacity:1;stroke-width:5.90021"
           d="m 329.8295,-891.47094 c 2.50151,-0.46622 3.32457,-2.05883 7.80823,-2.1803 4.48363,-0.1215 4.48363,-0.1215 4.48363,-0.1215 0,0 1.92436,-6.81151 -1.79668,-9.72095 -3.72102,-2.90944 -8.16999,-12.02272 -8.16999,-12.02272 0,0 -4.57753,3.57741 -4.90659,5.48722 -0.32907,1.90982 -1.31795,7.36124 -0.52462,10.08703 0.7933,2.72579 3.10602,8.47122 3.10602,8.47122 z"
           id="path190" /><path
           style="fill:#312a2a;fill-opacity:1;stroke-width:5.90021"
           d="m 311.75322,-919.56818 c -37.82556,-15.49738 -70.75751,-34.12967 -126.86246,-25.97669 0,0 0.47606,-4.31424 6.0032,-7.23868 5.52714,-2.92442 14.72386,-10.67184 19.96346,-11.74663 5.23959,-1.07479 22.55792,-2.14958 26.72905,-1.43306 4.17113,0.71652 20.696,3.71697 23.33819,4.52308 2.64219,0.80608 26.44546,10.7297 31.89206,13.28872 5.4466,2.55902 32.25438,23.93495 32.25438,23.93495 z"
           id="path191"
           sodipodi:nodetypes="ccssssscc" /><path
           style="fill:#e8d2bb;fill-opacity:1;stroke-width:5.90021"
           d="m 239.99525,-832.20793 c 0,0 0,3.31166 3.23787,3.88165 3.23786,0.56999 4.64233,0.6781 4.64233,0.6781 l 10.45541,-18.51668 -11.85988,-1.6197 z"
           id="path192" /><path
           style="fill:#6f69c7;fill-opacity:1;stroke-width:5.90021"
           d="m 147.32377,-731.43335 c 0,0 -13.93452,0.27321 -20.55895,-4.25111 -6.62442,-4.52435 -14.63286,-11.50197 -16.25759,-16.53379 -1.62474,-5.03179 -2.36671,-14.27321 -0.90321,-18.18666 1.4635,-3.91346 6.10654,-12.52808 9.18716,-15.07181 3.08061,-2.54375 21.82141,-12.41705 27.41209,-14.83222 5.59067,-2.41514 26.16572,-12.42933 29.33082,-14.77396 3.1651,-2.34466 15.35158,-11.73261 19.63734,-13.6415 4.28576,-1.90886 11.5941,-3.36058 15.67616,-1.54728 4.08207,1.81329 7.86511,5.75749 9.44387,8.57927 1.57876,2.82178 3.64717,12.40518 3.57143,15.82793 -0.0757,3.42273 2.25309,3.06335 2.25309,3.06335 0,0 9.44349,4.97856 14.77252,4.05024 5.32902,-0.92834 8.60877,-2.50074 8.60877,-2.50074 l 1.88899,-7.73811 c 0,0 8.45545,-4.18639 15.37457,-2.40122 6.91913,1.78517 11.58437,3.72361 11.31567,9.96392 -0.2687,6.2403 -3.11495,26.52627 -5.32916,31.28877 -2.2142,4.7625 -10.77357,30.73088 -10.77357,30.73088 l -0.94998,1.46624 -6.59421,-16.71336 -88.31827,-2.30708 z"
           id="path193" /><path
           style="fill:#adb5b1;fill-opacity:1;stroke-width:5.90021"
           d="m 225.26735,-773.21299 c 1.6768,-6.5569 3.2053,-9.735 4.43194,-11.85717 1.22664,-2.12214 5.50822,-7.69588 5.50822,-7.69588 0,0 6.40979,13.59363 6.9667,18.1107 0.5569,4.51707 0.5569,4.51707 0.5569,4.51707 0,0 -11.81858,-0.66238 -14.02107,-0.96644 -2.20249,-0.30409 -3.44269,-2.10828 -3.44269,-2.10828 z"
           id="path194" /><path
           style="fill:#adb5b1;fill-opacity:1;stroke-width:5.90021"
           d="m 233.22822,-790.3509 c -0.58935,-3.74533 -1.17871,-9.67168 -1.17871,-9.67168 l 6.8042,1.18377 c 0,0 0.0653,7.75266 -0.60095,7.75266 -0.66629,0 -5.02454,0.73525 -5.02454,0.73525 z"
           id="path195" /><path
           style="fill:#363e62;fill-opacity:1;stroke-width:5.90021"
           d="m 224.62477,-803.89801 c 0,0 4.02265,3.28355 7.42474,3.87543 3.4021,0.5919 11.63595,1.22404 13.47445,0.60682 1.83851,-0.61722 3.66875,-1.86351 4.07214,-3.45022 0.40339,-1.58673 2.43465,-11.91376 2.43465,-11.91376 0,0 10.59733,-5.12789 11.07947,-9.35578 0.48214,-4.22785 1.95412,-8.88537 -0.31724,-11.96334 -2.27136,-3.07798 -5.89009,-6.24811 -5.89009,-6.24811 l -8.50973,13.7819 c 0,0 -2.4306,2.71598 -5.16004,0.23879 -2.72944,-2.47716 -3.23787,-3.88165 -3.23787,-3.88165 0,0 5.61841,-13.51452 5.61841,-13.51452 0,0 -4.00139,-0.71064 -9.54349,-0.0306 -5.5421,0.68001 -8.39992,1.86331 -9.53875,3.00511 -1.13883,1.14181 -3.88061,5.01539 -3.97521,8.01931 -0.0946,3.0039 0.91302,8.71522 0.7049,10.02647 -0.20813,1.31127 -0.81999,4.4273 -0.81999,4.4273 0,0 0.20939,4.21605 0.57263,6.24289 0.36323,2.02682 1.61102,10.134 1.61102,10.134 z"
           id="path196" /><path
           style="fill:#363e62;fill-opacity:1;stroke-width:5.90021"
           d="m 175.882,-767.44079 c 27.34656,4.37082 43.45016,2.25484 64.37618,7.34425 4.9168,1.19582 14.1714,5.44203 14.1714,5.44203 0,0 15.55145,36.13219 16.66498,38.82353 1.11354,2.69134 7.2934,23.28852 7.69687,26.7978 l 0.40348,3.50924 -150.30325,0.31539 c 0,0 -0.56907,-8.96747 0.41615,-12.01269 0.98523,-3.04525 12.25727,-25.49046 15.13661,-27.43401 2.87935,-1.94355 13.0766,-20.52545 16.12184,-23.43934 3.04523,-2.91388 5.9656,-13.10986 6.35189,-13.85641 0.38629,-0.74652 8.96385,-5.48979 8.96385,-5.48979 z"
           id="path197"
           sodipodi:nodetypes="cscssccssssc" /><path
           style="fill:#e1e1e1;fill-opacity:1;stroke-width:5.90021"
           d="m 168.69842,-810.36869 c -0.37175,0.24863 2.17237,-0.86744 5.37211,4.12466 3.19974,4.99211 3.41359,6.70815 0.73668,8.84924 -12.94489,10.35381 -29.95583,17.51297 -40.93154,22.77768 -22.47855,10.78226 -5.19178,38.42552 -5.19178,38.42552 0,0 -20.6514,-8.22235 -19.86564,-21.21784 0.78577,-12.99548 2.20059,-21.18807 8.24319,-26.34009 6.04261,-5.15202 22.49203,-13.64988 27.91968,-16.01038 5.42766,-2.36051 23.7173,-10.60879 23.7173,-10.60879 z"
           id="path198"
           sodipodi:nodetypes="cssscsssc" /><path
           style="fill:none;fill-opacity:1;stroke:#000000;stroke-width:2.80894;stroke-linecap:round;stroke-linejoin:round;stroke-dasharray:none;stroke-opacity:1;paint-order:markers fill stroke"
           d="m 326.42994,-890.54929 c 78.46555,-22.29524 61.30827,51.80207 -2.74058,22.89204"
           id="path199"
           sodipodi:nodetypes="cc" /><path
           style="fill:none;fill-opacity:1;stroke:#000000;stroke-width:2.80894;stroke-linecap:round;stroke-linejoin:round;stroke-dasharray:none;stroke-opacity:1;paint-order:markers fill stroke"
           d="m 332.3303,-879.74335 c 8.04397,-6.11975 25.87342,-4.62963 29.52442,1.2539"
           id="path200"
           sodipodi:nodetypes="cc" /><path
           style="fill:none;fill-opacity:1;stroke:#000000;stroke-width:2.80894;stroke-linecap:round;stroke-linejoin:round;stroke-dasharray:none;stroke-opacity:1;paint-order:markers fill stroke"
           d="m 355.40181,-882.50737 c 0.55856,4.67192 0.10411,10.24158 -5.63045,14.27739"
           id="path201"
           sodipodi:nodetypes="cc" /><path
           style="color:#000000;fill:#000000;stroke-width:1.27274;stroke-linecap:round;stroke-linejoin:round;-inkscape-stroke:none;paint-order:markers fill stroke"
           d="m 247.05496,-991.38181 c -5.84205,-0.1298 -25.54083,-1.02421 -29.01643,0.60414 -14.12665,4.69697 -26.61627,14.39401 -32.35633,26.4673 -1.75952,4.13148 -1.56593,8.07108 -0.47575,10.01541 1.09018,1.94434 2.86786,2.7723 3.75359,3.54478 0.49847,0.43439 1.23241,0.46232 1.76245,0.0671 8.39829,-6.24192 15.94601,-11.83887 23.51088,-13.00331 26.92415,-4.14439 56.37178,4.09926 80.35165,18.06445 23.97986,13.96518 42.41064,33.68268 47.53634,51.84923 0.211,0.74594 0.98648,1.17986 1.7326,0.96947 0.74696,-0.20991 1.18219,-0.98575 0.97197,-1.73261 -5.45457,-19.33217 -24.39968,-39.28678 -48.82649,-53.51225 -24.42679,-14.22546 -54.41478,-22.6909 -82.19362,-18.41495 -8.26596,1.27236 -15.7929,6.89676 -23.81664,12.8666 -0.92304,-0.69912 -1.91238,-1.32532 -2.33171,-2.07317 -0.56034,-0.99938 -0.77921,-2.65331 0.7532,-6.29907 6.93205,-10.23388 13.87489,-19.86435 30.14803,-24.41324 38.66364,-5.93961 70.33583,4.07266 94.01619,19.17313 23.69857,15.11207 39.36129,35.39251 45.71671,49.62193 1.67731,3.75536 2.27541,9.6819 2.36651,14.58928 0.0911,4.90738 -0.26847,8.79234 -0.26847,8.79234 -0.072,0.77222 0.49555,1.45665 1.26776,1.52879 0.77224,0.072 1.45665,-0.49555 1.52879,-1.26777 0,0 0.37507,-4.03263 0.2809,-9.10555 -0.0942,-5.07294 -0.60308,-11.18941 -2.61011,-15.68305 -6.64788,-14.88419 -22.36601,-36.71246 -46.5491,-52.13351 -18.2961,-9.50817 -41.04581,-19.93323 -67.25292,-20.51544 z"
           id="path202"
           sodipodi:nodetypes="sccsccsscccsscsccssscccsscs" /><path
           style="fill:none;fill-opacity:1;stroke:#000000;stroke-width:2.80894;stroke-linecap:round;stroke-linejoin:round;stroke-dasharray:none;stroke-opacity:1;paint-order:markers fill stroke"
           d="m 332.15468,-915.51643 c -8.11655,4.71639 -6.41004,17.82242 -2.32516,24.04547"
           id="path203"
           sodipodi:nodetypes="cc" /><path
           style="color:#000000;fill:#000000;stroke-width:1.27274;stroke-linecap:round;stroke-linejoin:round;-inkscape-stroke:none;paint-order:markers fill stroke"
           d="m 277.76845,-988.66389 c -2.98353,0.003 -5.77145,0.27029 -8.28276,0.86507 -0.75421,0.1794 -1.22041,0.936 -1.04156,1.69035 0.17828,0.75523 0.93523,1.22276 1.69036,1.04404 8.93159,-2.11532 23.2429,0.4742 36.77522,4.64103 13.53232,4.16684 25.75749,11.27346 32.0721,14.86697 9.33798,5.31404 15.87047,19.71227 21.87517,35.25959 3.59176,9.29974 8.82034,26.1442 2.4218,35.13666 -0.36574,0.51401 2.19608,0.52843 1.74405,0.98998 7.79674,-10.47288 6.61331,-14.80459 -0.1293,-37.25145 -4.86513,-16.19656 -11.88572,-32.88141 -22.65578,-39.01042 -6.62792,-3.77182 -20.42871,-9.79045 -34.1666,-14.02059 -10.30343,-3.1726 -21.35213,-4.21768 -30.3027,-4.21123 z"
           id="path204"
           sodipodi:nodetypes="ccccsssscsssc" /><path
           style="color:#000000;fill:#000000;stroke-width:1.27274;stroke-linecap:round;stroke-linejoin:round;-inkscape-stroke:none;paint-order:markers fill stroke"
           d="m 188.90784,-952.82085 c -2.63592,2.54073 -5.60205,5.09977 -7.11442,8.22308 -0.5435,1.13093 0.55568,2.35276 1.7376,1.93149 18.08928,-6.50695 42.21796,-3.84271 65.50383,2.17012 23.28588,6.01283 45.06724,15.64463 59.9103,22.06966 0.29497,0.12789 2.85377,1.59165 3.16354,1.5056 5.22633,-1.42205 9.54714,-2.39373 13.29528,-4.5751 0.7467,-0.20886 -0.12447,-1.97368 -0.33286,-2.7205 -0.20776,-0.7477 -0.98255,-1.1852 -1.73012,-0.97692 l -13.10773,3.6616 c -14.88507,-6.436 -37.16013,-15.6577 -60.49741,-21.6838 -21.93193,-5.66323 -44.68597,-8.43252 -63.11248,-3.25642 1.25384,-1.4068 2.70094,-2.84586 4.23584,-4.32533 0.55816,-0.53883 0.57372,-1.42816 0.0348,-1.98618 -0.53812,-0.55887 -1.42745,-0.57557 -1.98617,-0.0373 z"
           id="path205"
           sodipodi:nodetypes="sccsccccccscccss" /><path
           style="fill:none;fill-opacity:1;stroke:#000000;stroke-width:2.80894;stroke-linecap:round;stroke-linejoin:round;stroke-dasharray:none;stroke-opacity:1;paint-order:markers fill stroke"
           d="m 241.47137,-935.9304 c 0,0 5.80365,7.98 6.44848,7.49638 0.64485,-0.48364 27.53902,-13.25754 32.78297,-12.7371 3.44579,0.34199 12.35633,8.22315 12.35633,8.22315"
           id="path206"
           sodipodi:nodetypes="cssc" /><path
           style="fill:none;fill-opacity:1;stroke:#000000;stroke-width:2.80894;stroke-linecap:round;stroke-linejoin:round;stroke-dasharray:none;stroke-opacity:1;paint-order:markers fill stroke"
           d="m 228.41326,-939.09214 -4.99758,3.98681 c 0,0 -14.83146,-17.18805 -19.99024,-17.18805 -5.15877,0 -9.6547,0.50587 -9.6547,0.50587"
           id="path207" /><path
           style="fill:none;fill-opacity:1;stroke:#000000;stroke-width:2.80894;stroke-linecap:round;stroke-linejoin:round;stroke-dasharray:none;stroke-opacity:1;paint-order:markers fill stroke"
           d="m 222.66821,-913.82755 c 0,-0.79795 -7.75158,-14.24923 -7.75158,-14.24923 l 12.99528,3.6478"
           id="path208" /><path
           style="fill:none;fill-opacity:1;stroke:#000000;stroke-width:2.80894;stroke-linecap:round;stroke-linejoin:round;stroke-dasharray:none;stroke-opacity:1;paint-order:markers fill stroke"
           d="m 248.08883,-916.79138 c 5.99456,4.67576 21.3733,5.28714 27.01654,1.36793 0.59954,-0.41638 5.47172,3.98979 5.47172,3.98979"
           id="path209"
           sodipodi:nodetypes="csc" /><path
           style="fill:none;fill-opacity:1;stroke:#000000;stroke-width:2.80894;stroke-linecap:round;stroke-linejoin:round;stroke-dasharray:none;stroke-opacity:1;paint-order:markers fill stroke"
           d="m 183.85327,-932.52252 c 0.59405,0 6.26967,-1.17842 6.26967,-1.17842 6.62855,6.91018 12.8435,8.34032 18.86598,7.22008"
           id="path210"
           sodipodi:nodetypes="ccc" /><path
           style="color:#000000;fill:#000000;stroke-linecap:round;stroke-linejoin:round;-inkscape-stroke:none;paint-order:markers fill stroke"
           d="m 646.62891,673.33398 c -0.28257,0.0757 -0.52353,0.26043 -0.66993,0.51368 -12.84011,22.17654 -13.1786,38.89384 -4.84375,51.12109 8.33486,12.22725 25.10416,19.23001 45.53907,24.5957 28.46873,7.47517 56.40422,7.15412 75.4082,-12.02148 0.475,-0.38273 0.28812,-0.85432 -0.0952,-1.32882 -0.38331,-0.47438 -0.81751,-0.77178 -1.2915,-0.38798 -19.94524,16.10823 -46.06511,18.00051 -73.51953,11.58789 -20.32726,-4.7479 -36.61472,-12.11841 -44.2168,-23.68945 -7.04481,-10.72282 -5.58678,-24.99659 4.92969,-48.77149 0.30526,-0.52747 0.12513,-1.20254 -0.40234,-1.50781 -0.25345,-0.14685 -0.55489,-0.1869 -0.83789,-0.11133 z"
           id="path211"
           sodipodi:nodetypes="ccsscscssccc"
           clip-path="url(#clipPath9703)"
           transform="matrix(1.2727398,0,0,1.2727398,-638.09959,-1802.5238)" /><path
           style="fill:none;fill-opacity:1;stroke:#000000;stroke-width:2.80894;stroke-linecap:round;stroke-linejoin:round;stroke-dasharray:none;stroke-opacity:1;paint-order:markers fill stroke"
           d="m 172.26164,-913.04666 c -45.98707,-4.10297 -18.37144,-51.61187 8.52303,-24.04794"
           id="path212"
           sodipodi:nodetypes="cc" /><path
           style="fill:none;fill-opacity:1;stroke:#000000;stroke-width:2.80894;stroke-linecap:round;stroke-linejoin:round;stroke-dasharray:none;stroke-opacity:1;paint-order:markers fill stroke"
           d="m 157.80569,-931.72458 c 7.83913,-2.29328 13.49228,0.48093 17.99512,5.92178"
           id="path213"
           sodipodi:nodetypes="cc" /><path
           style="fill:none;fill-opacity:1;stroke:#000000;stroke-width:2.80894;stroke-linecap:round;stroke-linejoin:round;stroke-dasharray:none;stroke-opacity:1;paint-order:markers fill stroke"
           d="m 167.2775,-931.92426 c -2.10163,1.64586 -3.78847,3.51797 -4.22811,6.07037"
           id="path214"
           sodipodi:nodetypes="cc" /><path
           style="color:#000000;fill:#000000;stroke-width:1.27274;stroke-linecap:round;stroke-linejoin:round;-inkscape-stroke:none;paint-order:markers fill stroke"
           d="m 203.95202,-903.05972 c -0.6774,-0.38062 -1.53511,-0.13889 -1.91408,0.53943 -0.37892,0.67683 -0.13742,1.53268 0.53942,1.91159 32.34742,19.11729 72.76596,23.05319 98.34153,4.46454 0.64869,-0.42331 0.83219,-1.2919 0.41015,-1.94142 -0.4226,-0.6511 -1.29324,-0.83591 -1.94391,-0.41265 -24.30009,15.82088 -63.84726,13.14729 -95.43311,-4.56149 z"
           id="path215"
           sodipodi:nodetypes="ccccccc" /><path
           style="fill:none;fill-opacity:1;stroke:#000000;stroke-width:2.80894;stroke-linecap:round;stroke-linejoin:round;stroke-dasharray:none;stroke-opacity:1;paint-order:markers fill stroke"
           d="m 296.44458,-903.23861 c 4.74835,5.87894 4.45714,8.67194 5.11234,12.04448"
           id="path216"
           sodipodi:nodetypes="cc" /><path
           style="color:#000000;fill:#000000;stroke-width:1.27274;stroke-linecap:round;stroke-linejoin:round;-inkscape-stroke:none;paint-order:markers fill stroke"
           d="m 214.43473,-897.58594 c -16.51026,2.44063 -27.88819,9.59735 -32.50956,18.58896 -2.28502,4.44587 -4.17222,8.57027 -3.95991,12.77712 0.21231,4.20684 2.07071,8.17209 5.55332,11.24088 4.89817,4.31613 10.45141,5.03758 15.84462,3.44286 5.39321,-1.59473 10.73387,-5.31324 16.08325,-9.74939 10.69877,-8.87229 21.55197,-20.71325 31.07275,-24.98497 0.70879,-0.31678 1.02612,-1.14851 0.70846,-1.85691 -0.31772,-0.70783 -1.14918,-1.02394 -1.8569,-0.70597 -10.52426,4.72195 -22.37997,15.47872 -32.83955,24.15265 -5.22978,4.33697 -9.91281,7.5968 -14.63576,8.99334 -4.72295,1.39652 -8.25922,2.35488 -12.51995,-1.39958 -2.96607,-2.61363 -4.43018,-5.78616 -4.60624,-9.2746 -0.17605,-3.48844 0.97913,-7.32407 3.49009,-11.07184 5.02195,-7.49554 15.46708,-14.55786 30.68993,-17.3908 0.76269,-0.142 1.2658,-0.87549 1.1236,-1.63815 -0.14199,-0.76269 -0.87549,-1.26579 -1.63815,-1.1236 z"
           id="path217"
           sodipodi:nodetypes="cssssscccsssssscc" /><path
           style="fill:none;fill-opacity:1;stroke:#000000;stroke-width:2.80894;stroke-linecap:round;stroke-linejoin:round;stroke-dasharray:none;stroke-opacity:1;paint-order:markers fill stroke"
           d="m 205.7971,-878.71742 c 4.87878,-5.48014 15.55326,-13.01906 20.9829,-13.04907"
           id="path218"
           sodipodi:nodetypes="cc" /><path
           style="fill:none;fill-opacity:1;stroke:#000000;stroke-width:2.80894;stroke-linecap:round;stroke-linejoin:round;stroke-dasharray:none;stroke-opacity:1;paint-order:markers fill stroke"
           d="m 246.47098,-847.78458 -6.47573,15.57666"
           id="path219" /><path
           style="fill:none;fill-opacity:1;stroke:#000000;stroke-width:2.80894;stroke-linecap:round;stroke-linejoin:round;stroke-dasharray:none;stroke-opacity:1;paint-order:markers fill stroke"
           d="m 247.87544,-827.64819 c 0,-1.02593 10.45542,-18.5167 10.45542,-18.5167"
           id="path220" /><path
           style="fill:none;fill-opacity:1;stroke:#000000;stroke-width:2.80894;stroke-linecap:round;stroke-linejoin:round;stroke-dasharray:none;stroke-opacity:1;paint-order:markers fill stroke"
           d="m 235.54951,-836.90653 c 4.34112,7.87771 10.74659,11.36871 19.94891,8.91638"
           id="path221"
           sodipodi:nodetypes="cc" /><path
           style="fill:none;fill-opacity:1;stroke:#000000;stroke-width:2.80894;stroke-linecap:round;stroke-linejoin:round;stroke-dasharray:none;stroke-opacity:1;paint-order:markers fill stroke"
           d="m 221.87021,-818.87064 c 0.50384,-0.74357 1.85892,-5.40404 1.48196,-6.9473 -5.23925,-21.44895 13.48478,-21.75142 22.26149,-19.9045"
           id="path222"
           sodipodi:nodetypes="csc" /><path
           style="fill:none;fill-opacity:1;stroke:#000000;stroke-width:2.80894;stroke-linecap:round;stroke-linejoin:round;stroke-dasharray:none;stroke-opacity:1;paint-order:markers fill stroke"
           d="m 224.62477,-803.89801 c 3.75337,4.52269 18.60834,6.72746 22.7377,3.86503 4.38537,-3.02896 4.54993,-14.58837 4.66828,-14.74681 16.92956,-7.43925 14.18988,-20.65879 4.87214,-27.56721"
           id="path223"
           sodipodi:nodetypes="cccc" /><path
           style="fill:none;fill-opacity:1;stroke:#000000;stroke-width:3.6944;stroke-linecap:round;stroke-linejoin:round;stroke-dasharray:none;stroke-opacity:1;paint-order:markers fill stroke"
           d="m 223.2203,-796.6435 c 2.39452,-16.78624 -1.7581,-31.53597 -15.59696,-34.62301 -12.58907,-2.80827 -24.24743,13.67177 -45.59577,23.87857 -22.44387,10.73058 -38.92506,14.77065 -47.26857,26.46259 -20.657225,30.69344 13.6703,51.83533 32.56477,49.49199"
           id="path224"
           sodipodi:nodetypes="csscc" /><path
           style="color:#000000;fill:#000000;stroke-width:1.27274;stroke-linecap:round;stroke-linejoin:round;-inkscape-stroke:none;paint-order:markers fill stroke"
           d="m 169.82421,-764.61695 c -0.69608,-0.34164 -1.53731,-0.0546 -1.87929,0.64135 -6.32143,12.87992 -15.39029,23.1499 -23.81913,34.70701 -8.42884,11.55713 -16.18987,24.43124 -19.61808,42.39069 -0.14115,2.00308 4.06112,3.11966 4.38395,1.66935 3.3286,-17.43759 12.34151,-30.31278 20.66992,-41.73219 8.32841,-11.41942 14.37594,-22.49607 20.90396,-35.79692 0.34164,-0.69606 0.0546,-1.53729 -0.64133,-1.87929 z"
           id="path225"
           sodipodi:nodetypes="ccsccssc" /><path
           style="color:#000000;fill:#000000;stroke-width:1.27274;stroke-linecap:round;stroke-linejoin:round;-inkscape-stroke:none;paint-order:markers fill stroke"
           d="m 193.92174,-789.18678 c -0.3506,0.126 -0.63675,0.38629 -0.79546,0.72337 -2.11101,4.4825 -10.25304,12.57836 -19.10353,19.64792 -8.85048,7.06955 -18.60077,13.36604 -23.51834,15.0765 -0.73227,0.25485 -1.1195,1.05488 -0.86507,1.78731 0.25486,0.73227 1.0549,1.11948 1.78731,0.86505 5.78963,-2.01378 16.7028,-7.56824 25.69318,-14.74954 8.99038,-7.18129 15.86788,-15.7351 18.54944,-21.42908 0.33052,-0.70221 0.0288,-1.53939 -0.67366,-1.86934 -0.33687,-0.15914 -0.72315,-0.17791 -1.07387,-0.0522 z"
           id="path226"
           sodipodi:nodetypes="scscccsccss" /><path
           style="fill:none;fill-opacity:1;stroke:#000000;stroke-width:2.80894;stroke-linecap:round;stroke-linejoin:round;stroke-dasharray:none;stroke-opacity:1;paint-order:markers fill stroke"
           d="m 255.65801,-789.26877 c -15.31188,35.18219 19.86916,63.79441 23.5369,102.65522"
           id="path227"
           sodipodi:nodetypes="cc" /><path
           style="color:#000000;fill:#000000;stroke-width:1.27274;stroke-linecap:round;stroke-linejoin:round;-inkscape-stroke:none;paint-order:markers fill stroke"
           d="m 267.32859,-813.60057 c -4.12564,-0.33222 -9.77363,1.45211 -16.30259,3.27189 -0.74671,0.20885 -1.1829,0.9833 -0.97445,1.73012 0.20886,0.7467 0.98332,1.1829 1.73014,0.97445 6.32945,-1.76417 11.2178,-2.36031 14.84531,-2.0682 3.62751,0.2921 5.94348,1.41581 7.47983,3.11472 3.07272,3.39784 3.22552,9.88723 1.52132,17.99983 -1.70419,8.11261 -5.12722,17.64755 -8.33744,26.86177 -3.21021,9.21423 -6.21857,18.08819 -7.04233,25.17141 -0.0904,0.771 0.46187,1.46909 1.23297,1.55861 0.771,0.0904 1.4691,-0.46187 1.55861,-1.23297 0.76297,-6.56059 5.34971,-16.85279 8.55336,-26.04817 3.20365,-9.19537 5.9643,-17.2651 7.73243,-25.68207 1.76813,-8.41697 2.13862,-16.22117 -2.02658,-20.82709 -2.0826,-2.30296 -5.84493,-4.49207 -9.97058,-4.8243 z"
           id="path228"
           sodipodi:nodetypes="scccsssscccssss" /><path
           style="color:#000000;fill:#000000;stroke-width:1.27274;stroke-linecap:round;stroke-linejoin:round;-inkscape-stroke:none;paint-order:markers fill stroke"
           d="m 127.61995,-736.33577 c -0.36013,0.0951 -0.66773,0.32939 -0.85513,0.65129 -10.96622,18.85364 -23.15934,36.02583 -39.467354,47.93655 -0.627168,0.45757 -0.764127,1.3372 -0.305763,1.9638 0.457436,0.6256 1.335168,0.76242 1.961318,0.30575 12.408699,-4.75582 34.148879,-25.47124 42.091019,-48.50578 0.39063,-0.67125 -1.68824,-1.81798 -2.36016,-2.20743 -0.32155,-0.18707 -0.70419,-0.23892 -1.06393,-0.14418 z"
           id="path229"
           sodipodi:nodetypes="cccccccc" /><path
           style="color:#000000;fill:#000000;stroke-width:1.27274;stroke-linecap:round;stroke-linejoin:round;-inkscape-stroke:none;paint-order:markers fill stroke"
           d="m 179.10625,-870.17977 c -0.36169,0.0897 -0.67289,0.31957 -0.86506,0.63885 -12.09523,20.13029 -17.37916,42.40363 -23.07836,64.36037 -0.19515,0.75099 0.25567,1.51794 1.00676,1.71272 0.75099,0.19515 1.51793,-0.25566 1.71273,-1.00675 9.23403,-26.37999 15.8571,-50.06058 22.76762,-63.61959 0.39871,-0.66517 0.18283,-1.52762 -0.48224,-1.92651 -0.3188,-0.19147 -0.70053,-0.24868 -1.06145,-0.15909 z"
           id="path230"
           sodipodi:nodetypes="sccccccs" /><path
           style="color:#000000;fill:#000000;stroke-width:1.27274;stroke-linecap:round;stroke-linejoin:round;-inkscape-stroke:none;paint-order:markers fill stroke"
           d="m 346.68781,-862.25 c -0.57087,-0.52648 -1.46064,-0.48976 -1.98618,0.082 -4.81778,5.22624 -8.02393,13.74921 -10.31615,23.96082 -2.29222,10.21161 -5.14998,19.88747 -5.88313,31.85703 -1.46628,23.93911 -0.47771,50.56007 0,61.41876 0.94762,21.53922 -7.57512,59.3635 -7.57512,59.3635 -0.1988,0.75034 0.24876,1.51966 0.99931,1.7177 0.74953,0.19721 1.51713,-0.25 1.71521,-0.9993 0,0 12.35772,-38.1222 11.36642,-60.65438 -0.47659,-10.83277 -3.62623,-34.68113 -2.17135,-58.4338 0.72744,-11.87633 2.04759,-23.67198 4.28804,-33.65302 2.24047,-9.98106 5.45336,-18.12886 9.64251,-22.67317 0.5271,-0.5702 0.49146,-1.45994 -0.0795,-1.98617 z"
           id="path231"
           sodipodi:nodetypes="scssscccssscss" /><path
           style="fill:none;fill-opacity:1;stroke:#000000;stroke-width:2.80894;stroke-linecap:round;stroke-linejoin:round;stroke-dasharray:none;stroke-opacity:1;paint-order:markers fill stroke"
           d="m 235.20751,-792.76604 c -5.34966,6.24617 -9.13974,12.7003 -9.94016,19.55303 5.03233,4.1806 11.24379,3.6447 17.46376,3.07474 -1.01653,-7.38561 -0.98971,-14.66139 -7.5236,-22.62777 z"
           id="path232"
           sodipodi:nodetypes="cccc" /><path
           style="color:#000000;fill:#000000;stroke-width:1.27274;stroke-linecap:round;stroke-linejoin:round;-inkscape-stroke:none;paint-order:markers fill stroke"
           d="m 232.90188,-771.39328 c -0.76665,-0.11417 -1.48089,0.41422 -1.59589,1.18076 -2.66642,17.70466 -1.52997,28.24538 -0.0621,39.44995 1.46781,11.20459 3.2563,23.09565 1.99114,44.06366 -0.0467,0.77432 0.54316,1.43989 1.31749,1.48652 0.77432,0.0467 1.43989,-0.54317 1.48652,-1.31749 1.27868,-21.19212 1.46877,-33.54035 0.006,-44.70766 -1.46294,-11.16732 -4.58707,-21.12835 -1.96213,-38.55737 0.11569,-0.76754 -0.41312,-1.48342 -1.18077,-1.59837 z"
           id="path233"
           sodipodi:nodetypes="scssscscss" /><path
           style="fill:none;fill-opacity:1;stroke:#000000;stroke-width:2.80894;stroke-linecap:round;stroke-linejoin:round;stroke-dasharray:none;stroke-opacity:1;paint-order:markers fill stroke"
           d="m 233.22822,-790.35091 c -0.54313,-1.23881 -1.17871,-9.67167 -1.17871,-9.67167"
           id="path234"
           sodipodi:nodetypes="cc" /><path
           style="fill:none;fill-opacity:1;stroke:#000000;stroke-width:2.80894;stroke-linecap:round;stroke-linejoin:round;stroke-dasharray:none;stroke-opacity:1;paint-order:markers fill stroke"
           d="m 237.65181,-789.35365 1.2019,-9.48517"
           id="path235"
           sodipodi:nodetypes="cc" /><g
           id="g237"><path
             style="color:#000000;fill:#000000;-inkscape-stroke:none;paint-order:stroke fill markers"
             d="m 334.61914,-872.6875 c -0.54594,0.0926 -0.99441,0.26804 -1.48828,0.82619 -3.38276,3.82307 -2.34507,7.31633 -1.875,10.19141 0.64077,3.91916 3.80012,7.55214 6.86106,8.23768 3.97736,0.89079 8.41478,-0.74929 10.99441,-5.25721 l 1.53125,-2.67774 -3.07617,-0.23047 c -1.28061,-0.0959 -1.80735,-0.14551 -3.3711,-0.34179 l -1.18945,-0.15039 -0.66797,0.99414 c 0.0155,1.3761 -0.92571,2.20729 -1.26227,1.94175 -2.31953,-1.83006 -0.24796,-6.39004 0.69147,-8.99557 0.55198,-1.03942 0.28372,-2.27302 -1.04248,-3.06532 -1.83444,-0.72105 -4.18893,-1.7978 -6.10547,-1.47268 z m 1.20313,3.99805 c 0.44769,0.0461 0.89988,0.0567 1.30078,0.16992 -0.35431,1.01661 -0.60006,2.08353 -0.70899,3.19141 -0.1904,1.93652 -0.0735,3.91813 0.38867,5.64453 0.0644,0.24049 0.21166,0.43685 0.29102,0.66797 -0.96864,-0.9221 -1.75479,-2.05992 -2.01758,-3.40235 -0.38563,-1.9699 -0.37687,-4.13236 0.7461,-6.27148 z"
             id="path236"
             sodipodi:nodetypes="ssssccscccsccsccsscsc" /><path
             style="color:#000000;fill:#6a6a6a;-inkscape-stroke:none;paint-order:stroke fill markers"
             d="m 334.7259,-870.74424 c -2.0848,2.97796 -2.0575,6.15473 -1.55935,8.69943 1.22905,6.2784 9.7638,10.23691 14.25486,2.38875 -1.29355,-0.0969 -1.89047,-0.15462 -3.46805,-0.35264 -5.37526,7.99578 -7.27367,-5.29837 -4.21112,-9.52594 -1.18368,-0.69252 -3.00177,-1.32007 -5.01634,-1.2096 z"
             id="path237" /></g><path
           style="fill:#000000;fill-opacity:1;stroke-width:5.90021"
           d="m 245.14993,-844.60694 c 0,0 9.18751,5.51448 9.05286,5.42912 -0.11399,-0.0723 4.84205,-8.89595 4.12807,-6.98704 -0.71399,1.90894 -11.85988,-1.6197 -11.85988,-1.6197 z"
           id="path238"
           sodipodi:nodetypes="csscc" /><path
           style="fill:#4d4d4d;fill-opacity:1;stroke:none;stroke-width:1.224;stroke-linecap:round;stroke-dasharray:none;stroke-opacity:1"
           d="m 340.09946,-857.73789 c 0.91519,1.01195 2.17874,1.46117 3.47573,1.85637 1.57163,-0.79113 2.88288,-2.00226 3.84622,-3.77455 l -3.46805,-0.35263 c -1.33038,1.93478 -2.62731,3.00834 -3.8539,2.27081 z"
           id="path239"
           sodipodi:nodetypes="ccccc" /></g></g></g></svg>
