<?xml version="1.0" encoding="UTF-8" standalone="no"?>
<!-- Created with Inkscape (http://www.inkscape.org/) -->

<svg
   width="232.15485"
   height="223.84052"
   viewBox="0 0 61.424302 59.22447"
   version="1.1"
   id="svg1"
   inkscape:version="1.3.2 (091e20e, 2023-11-25, custom)"
   xml:space="preserve"
   xmlns:inkscape="http://www.inkscape.org/namespaces/inkscape"
   xmlns:sodipodi="http://sodipodi.sourceforge.net/DTD/sodipodi-0.dtd"
   xmlns="http://www.w3.org/2000/svg"
   xmlns:svg="http://www.w3.org/2000/svg"><sodipodi:namedview
     id="namedview1"
     pagecolor="#4c4c4c"
     bordercolor="#6f6f6f"
     borderopacity="1"
     inkscape:showpageshadow="false"
     inkscape:pageopacity="0.0"
     inkscape:pagecheckerboard="0"
     inkscape:deskcolor="#4c4c4c"
     inkscape:document-units="px" /><defs
     id="defs1" /><g
     inkscape:label="Capa 1"
     inkscape:groupmode="layer"
     id="layer1"
     transform="translate(-257.0903,169.47001)"><path
       style="fill:#f6b0cc;fill-opacity:1"
       d="m 266.99081,-110.54357 c -0.47218,-0.1266 -1.05867,-0.53566 -1.3033,-0.90901 -0.27785,-0.42405 -0.87615,-3.25786 -1.59414,-7.55048 -1.00233,-5.99262 -1.26323,-7.09792 -2.03958,-8.64052 -1.10765,-2.20093 -2.00966,-5.07587 -2.00966,-6.40532 0,-1.36123 -0.22118,-1.84585 -0.84241,-1.84585 -0.28667,0 -0.86925,-0.34803 -1.29461,-0.7734 -1.08908,-1.08908 -1.08908,-2.65579 0,-3.74487 0.70638,-0.70639 1.29298,-0.90014 2.41199,-0.79668 0.2493,0.023 0.54264,-0.35 0.75624,-0.96172 0.64739,-1.85401 2.15772,-4.29156 3.67363,-5.92891 1.33752,-1.44469 4.85237,-4.19859 5.35872,-4.19859 0.10504,0 0.33653,0.35138 0.51443,0.78085 0.67832,1.63763 0.5858,1.62505 11.85402,1.61176 11.70649,-0.0138 11.17451,0.0899 12.06311,-2.35203 0.27289,-0.74992 0.63726,-1.3635 0.80972,-1.3635 0.53658,0 3.45682,1.21967 5.28712,2.20821 l 1.74817,0.94418 3.93762,-2.36994 c 2.16569,-1.30347 4.00963,-2.36995 4.09764,-2.36995 0.54027,0 -0.19155,5.67587 -1.11394,8.63953 l -0.49275,1.58321 0.97046,1.34889 c 0.53375,0.74189 1.43727,2.37421 2.00783,3.62738 l 1.03738,2.27849 2.1865,0.68629 c 2.4898,0.7815 3.50372,1.67655 3.49958,3.08933 -0.001,0.46177 -0.41714,2.44694 -0.92396,4.41147 -0.78118,3.02798 -1.04332,3.68267 -1.72151,4.29948 -0.73006,0.66398 -0.98156,0.7276 -2.87651,0.7276 h -2.07651 l -0.74994,1.08216 c -0.84269,1.216 -4.04305,4.26337 -5.18721,4.93924 -0.87928,0.51941 -0.88001,0.52768 -0.30788,3.51218 0.42861,2.23589 0.4263,2.32934 -0.0792,3.19783 -0.71144,1.22227 -1.76639,1.52365 -5.38939,1.53968 -4.19454,0.0185 -4.82982,-0.1941 -5.98785,-2.0044 -0.62862,-0.98269 -1.05983,-1.41073 -1.32043,-1.31073 -0.92162,0.35366 -6.1955,0.47153 -8.33198,0.18622 -2.10703,-0.28137 -4.50199,-0.80686 -5.57642,-1.22353 -0.3588,-0.13914 -0.47783,0.0266 -0.60389,0.841 -0.26547,1.71496 -0.96481,2.83173 -1.9923,3.18149 -1.06263,0.36173 -7.08446,0.38536 -8.39878,0.033 z m 39.88958,-23.16837 c 2.22796,-2.00849 0.19883,-5.49483 -2.7122,-4.65995 -1.20334,0.34511 -2.14346,1.79171 -1.95375,3.0063 0.20667,1.32321 1.45471,2.38125 2.80885,2.38125 0.77339,0 1.2626,-0.19167 1.8571,-0.7276 z m -31.02172,-22.225 c -1.20067,-1.36575 -1.65555,-2.80199 -1.655,-5.22552 4.6e-4,-2.06768 0.093,-2.55546 0.70284,-3.70417 1.40454,-2.64568 3.9067,-4.34029 6.74502,-4.56813 2.10246,-0.16876 3.83757,0.26458 5.53722,1.38292 3.80512,2.50371 4.78091,7.83324 2.14514,11.71622 l -0.58247,0.85809 -6.24285,0.002 c -5.61549,0.002 -6.28375,-0.0447 -6.6499,-0.46121 z"
       id="path9" /></g></svg>
