<?xml version="1.0" encoding="UTF-8" standalone="no"?>
<!-- Created with Inkscape (http://www.inkscape.org/) -->

<svg
   width="191"
   height="191.23889"
   viewBox="0 0 50.535416 50.598623"
   version="1.1"
   id="svg1"
   inkscape:version="1.3.2 (091e20e, 2023-11-25, custom)"
   xml:space="preserve"
   xmlns:inkscape="http://www.inkscape.org/namespaces/inkscape"
   xmlns:sodipodi="http://sodipodi.sourceforge.net/DTD/sodipodi-0.dtd"
   xmlns="http://www.w3.org/2000/svg"
   xmlns:svg="http://www.w3.org/2000/svg"><sodipodi:namedview
     id="namedview1"
     pagecolor="#4c4c4c"
     bordercolor="#6f6f6f"
     borderopacity="1"
     inkscape:showpageshadow="false"
     inkscape:pageopacity="0.0"
     inkscape:pagecheckerboard="0"
     inkscape:deskcolor="#4c4c4c"
     inkscape:document-units="px" /><defs
     id="defs1" /><g
     inkscape:label="Capa 1"
     inkscape:groupmode="layer"
     id="layer1"
     transform="translate(-318.51459,57.257423)"><path
       style="fill:#88f6f3;fill-opacity:1"
       d="m 324.60001,-6.9562722 c -2.51198,-0.802855 -4.2922,-2.340964 -5.39411,-4.6605248 l -0.69131,-1.455208 v -18.917709 -18.917708 l 0.69131,-1.455208 c 0.87936,-1.851078 2.35241,-3.324125 4.20348,-4.203488 l 1.45521,-0.691303 h 18.91771 18.91771 l 1.45521,0.691303 c 1.85107,0.879363 3.32412,2.35241 4.20348,4.203488 l 0.69131,1.455208 v 18.917708 18.917709 l -0.69131,1.455208 c -0.87936,1.8510778 -2.35241,3.3241248 -4.20348,4.2034878 l -1.45521,0.691304 -18.52084,0.05199 c -14.42545,0.0405 -18.75485,-0.0228 -19.57916,-0.286261 z M 343.9336,-18.409017 c 0.91493,-0.310299 1.78369,-0.922005 2.91221,-2.050521 2.36711,-2.367111 2.49274,-2.88322 2.49274,-10.24049 v -6.024383 l 1.74108,0.814749 c 0.95759,0.448112 2.26728,0.874059 2.91041,0.94655 l 1.16934,0.131801 -9.9e-4,-2.746389 -9.9e-4,-2.746388 -1.21568,-0.500003 c -1.57457,-0.647612 -3.96505,-2.97378 -4.27068,-4.155784 l -0.23283,-0.900463 -2.82796,-0.0751 -2.82795,-0.0751 v 10.076256 c 0,11.101612 -0.0162,11.221801 -1.62412,12.053291 -1.12646,0.582517 -2.4013,0.304537 -3.25472,-0.709692 -1.21022,-1.438266 -0.67531,-3.618936 1.03985,-4.239145 l 0.92857,-0.335778 v -2.880516 -2.880521 l -1.11167,0.187817 c -2.79317,0.471903 -5.25481,2.314938 -6.47519,4.847981 -0.58553,1.215345 -0.7195,1.862051 -0.72035,3.477381 -0.002,3.752273 2.14201,6.857796 5.58147,8.084626 1.39625,0.498029 4.2284,0.46858 5.78746,-0.06018 z"
       id="path5" /></g></svg>
