<?xml version="1.0" encoding="UTF-8" standalone="no"?>
<!-- Created with Inkscape (http://www.inkscape.org/) -->

<svg
   width="149.38416"
   height="191.99893"
   viewBox="0 0 39.524557 50.799717"
   version="1.1"
   id="svg1"
   inkscape:version="1.3.2 (091e20e, 2023-11-25, custom)"
   xml:space="preserve"
   xmlns:inkscape="http://www.inkscape.org/namespaces/inkscape"
   xmlns:sodipodi="http://sodipodi.sourceforge.net/DTD/sodipodi-0.dtd"
   xmlns="http://www.w3.org/2000/svg"
   xmlns:svg="http://www.w3.org/2000/svg"><sodipodi:namedview
     id="namedview1"
     pagecolor="#4c4c4c"
     bordercolor="#6f6f6f"
     borderopacity="1"
     inkscape:showpageshadow="false"
     inkscape:pageopacity="0.0"
     inkscape:pagecheckerboard="0"
     inkscape:deskcolor="#4c4c4c"
     inkscape:document-units="px" /><defs
     id="defs1" /><g
     inkscape:label="Capa 1"
     inkscape:groupmode="layer"
     id="layer1"
     transform="translate(-361.64853,-120.20058)"><path
       style="fill:#efeff1;fill-opacity:1"
       d="m 362.97911,170.49122 c -0.94488,-0.57616 -1.53149,-1.98208 -1.26689,-3.03634 0.0951,-0.37888 0.52622,-0.98618 0.95807,-1.34956 0.68295,-0.57467 1.04086,-0.66068 2.74924,-0.66068 h 1.96408 v -2.85482 c 0,-5.70587 0.90031,-7.59374 6.17771,-12.95403 l 3.97251,-4.0349 -3.97251,-4.03489 c -5.2774,-5.36029 -6.17771,-7.24816 -6.17771,-12.95403 v -2.85483 h -1.96408 c -1.7146,0 -2.065,-0.0849 -2.75867,-0.66861 -0.99765,-0.83946 -1.24797,-1.90007 -0.73706,-3.12286 0.76527,-1.83154 0.0283,-1.76478 19.48272,-1.76478 19.25081,0 18.59778,-0.0545 19.46582,1.62413 0.58251,1.12646 0.30453,2.4013 -0.7097,3.25472 -0.70304,0.59157 -1.05003,0.6774 -2.73848,0.6774 h -1.93343 l -0.12089,3.50573 c -0.19344,5.60973 -1.05257,7.30326 -6.52481,12.86187 l -3.48037,3.5353 3.57815,3.60845 c 4.03026,4.06438 4.64176,4.86835 5.61813,7.38641 0.58304,1.50367 0.70808,2.31967 0.80966,5.28401 l 0.12013,3.50573 h 1.93343 c 1.68845,0 2.03544,0.0858 2.73848,0.67741 1.01423,0.85342 1.29221,2.12826 0.7097,3.25472 -0.86825,1.67901 -0.20937,1.62422 -19.51882,1.62313 -16.82795,-9.4e-4 -17.57567,-0.0216 -18.37441,-0.50868 z m 25.30658,-13.78955 c 0,-0.15197 -1.53024,-1.84103 -3.40052,-3.75347 l -3.40053,-3.47716 -3.47864,3.53874 c -1.91325,1.9463 -3.47864,3.63536 -3.47864,3.75346 0,0.11811 3.09562,0.21474 6.87916,0.21474 4.60436,0 6.87917,-0.0914 6.87917,-0.27631 z m -0.9794,-20.9565 c 2.06792,-2.43807 2.39874,-3.34189 2.5179,-6.87917 l 0.10474,-3.10886 h -8.52241 -8.5224 l 0.10526,3.10886 c 0.12299,3.63233 0.61542,4.8948 2.73669,7.01606 l 1.25216,1.25217 h 4.57494 4.57494 z"
       id="path2" /></g></svg>
