<?xml version="1.0" encoding="UTF-8" standalone="no"?>
<!-- Created with Inkscape (http://www.inkscape.org/) -->

<svg
   width="212.4801"
   height="169.36768"
   viewBox="0 0 56.218693 44.811864"
   version="1.1"
   id="svg1"
   inkscape:version="1.3.2 (091e20e, 2023-11-25, custom)"
   xml:space="preserve"
   xmlns:inkscape="http://www.inkscape.org/namespaces/inkscape"
   xmlns:sodipodi="http://sodipodi.sourceforge.net/DTD/sodipodi-0.dtd"
   xmlns="http://www.w3.org/2000/svg"
   xmlns:svg="http://www.w3.org/2000/svg"><sodipodi:namedview
     id="namedview1"
     pagecolor="#4c4c4c"
     bordercolor="#6f6f6f"
     borderopacity="1"
     inkscape:showpageshadow="false"
     inkscape:pageopacity="0.0"
     inkscape:pagecheckerboard="0"
     inkscape:deskcolor="#4c4c4c"
     inkscape:document-units="px" /><defs
     id="defs1" /><g
     inkscape:label="Capa 1"
     inkscape:groupmode="layer"
     id="layer1"
     transform="translate(-170.55022,-30.699508)"><path
       style="fill:#c44545;fill-opacity:1"
       d="m 184.37925,75.359972 c -7.0162,-0.41722 -9.09119,-0.92193 -10.79496,-2.6257 -1.11151,-1.11151 -1.76929,-2.41906 -2.13579,-4.24559 -1.19771,-5.96896 -1.19771,-24.7227 0,-30.69167 0.75122,-3.74381 2.84714,-5.68563 6.82899,-6.32688 3.66837,-0.59078 13.47055,-0.8832 24.4903,-0.73061 11.31142,0.15664 15.62693,0.42026 17.99166,1.09908 2.67154,0.76688 4.4903,2.84147 5.11567,5.83525 1.19171,5.70499 1.19171,25.23301 0,30.938 -0.6251,2.99248 -2.44115,5.06489 -5.11567,5.83781 -0.7276,0.21027 -2.6326,0.5105 -4.23333,0.66717 -3.73199,0.36526 -27.11863,0.54215 -32.14687,0.24314 z m 15.62424,-16.43668 c 8.46905,-4.85673 8.30934,-4.74856 8.40133,-5.6903 0.0994,-1.01769 0.28366,-0.88398 -6.95995,-5.05125 -6.90039,-3.96983 -6.83058,-3.93749 -7.67292,-3.5537 l -0.66145,0.30138 v 8.19461 c 0,7.52526 0.0378,8.21663 0.46302,8.46429 0.25466,0.14833 0.64783,0.27331 0.87372,0.27773 0.22588,0.004 2.7262,-1.31982 5.55625,-2.94276 z"
       id="path3" /></g></svg>
